<?xml version="1.0" encoding="utf-8" ?><svg xmlns="http://www.w3.org/2000/svg" xmlns:xlink="http://www.w3.org/1999/xlink" width="1024" height="1024" viewBox="0 0 1024 1024"><path fill="white" d="M233.847 338.565C243.395 322.203 274.099 284.397 297.565 296.748C309.313 302.931 316.885 323.385 319.883 335.288C322.974 346.789 323.722 356.479 323.562 368.129C335.449 356.4 355.365 339.319 373.472 337.889C376.193 337.674 379.435 339.771 381.17 341.867C394.948 358.514 399.162 380.703 397.488 401.51C397.103 406.017 396.456 410.498 395.551 414.929C409.307 401.441 429.637 384.716 449.779 382.296C452.159 382.01 456.298 383.412 457.818 385.422C468.593 400.22 471.445 422.881 470.347 439.988C470.221 441.877 470.067 443.765 469.886 445.65C483.23 436.611 492.503 432.63 508.739 429.732C522.502 427.275 526.912 429.999 534.612 441.71C540.962 451.366 542.799 459.534 543.945 470.88C559.155 465.494 576.242 456.846 592.471 458.973C605.339 460.659 629.283 464.776 634.119 479.028L634.321 479.639C641.14 477.638 648.231 475.546 654.553 472.717C669.882 465.855 682.327 457.456 699.729 461.786C713.301 465.164 718.535 468.378 726.884 479.43C741.157 474.986 748.499 465.8 763.573 461.601C794.319 453.035 811.315 491.793 802.874 516.545C802.123 518.748 796.181 523.48 794.013 525.268L792.183 526.749C797.292 529.601 801.257 533.123 805.438 537.146C806.355 550.455 805.192 560.167 796.106 570.7C776.762 593.125 745.54 583.98 730.466 561.667C725.027 572.957 715.656 576.508 704.718 581.04C684.899 589.253 660.491 581.127 649.732 562.176L649.241 561.969L649.104 562.707C648.975 563.377 648.453 566.112 648.099 566.488C637.1 578.15 620.354 585.924 604.297 582.767C592.015 580.266 580.895 573.799 572.648 564.36C570.864 569.45 568.812 573.329 565.354 577.543C538.648 610.091 523.198 600.477 496.576 574.011L492.762 578.237C491.494 587.731 488.774 591.644 483.901 599.559C464.656 630.819 444.764 630.918 423.625 600.809C420.238 596.01 417.328 590.892 414.936 585.527C413.083 593.139 409.884 599.369 406.262 606.241C401.258 615.732 395.076 627.563 385.714 633.418C369.161 643.772 353.494 625.131 346.581 612.069C345.492 609.983 344.42 607.888 343.366 605.784C336.995 614.876 318.156 639.793 304.236 628.806C295.565 621.963 285.061 600.93 280.976 590.551C279.071 586.637 276.382 575.316 275.275 570.88C267.835 533.256 270.934 502.048 290.385 469.535C290.456 469.338 290.526 469.141 290.597 468.944C292.347 466.808 294.12 464.69 295.916 462.592C296.884 500.369 310.487 530.36 334.803 558.586C334.592 551.191 337.172 539.932 342.386 534.58C348.602 528.198 365.023 526.093 373.48 526.31C384.695 526.597 408.025 529.967 416.062 538.219C416.391 538.559 416.716 538.903 417.037 539.251C418.559 536.964 419.963 534.824 422.384 533.389C439.096 523.484 477.451 526.03 491.516 539.052L496.05 531.96C514.064 522.422 556.327 515.816 569.356 536.804C572.765 533.493 575.337 530.894 579.708 528.879L580.034 527.65C579.772 527.631 579.089 527.591 578.729 527.513C559.15 523.279 547.864 516.461 536.306 501.023C532.152 507.439 527.174 512.766 519.064 513.328C500.662 514.576 480.029 510.16 465.007 499.072C459.212 494.793 458.324 490.547 457.58 483.944C451.225 488.17 443.914 490.74 436.312 491.419C420.335 492.964 397.4 487.64 384.492 477.442C377.963 472.283 378.433 467.236 377.746 459.565C368.643 463.173 358.905 465.714 349.047 464.871C330.806 463.311 310.198 453.972 298.203 440.06C295.081 440.693 295.756 429.337 295.749 427.639C295.726 427.953 295.843 429.965 295.337 430.227L295.23 430.187C294.669 428.777 295.7 420.42 296.898 418.836L296.935 418.954L297.012 418.983C298.312 417.79 298.236 416.129 298.144 414.481C298.033 408.866 299.627 403.349 293.657 410.871C293.458 410.997 293.599 410.924 293.167 411.081C291.638 411.439 291.561 411.375 290.259 412.171C286.16 417.936 280.613 427.17 277.37 433.437C275.89 436.207 274.923 438.598 273.689 441.473C273.132 442.873 272.638 444.138 272.14 445.569C271.04 447.485 265.924 461.138 265.642 463.383C257.122 485.551 251.073 530.259 255.97 553.191C256.033 556.347 257.552 563.253 258.221 566.621C247.775 558.933 243.479 552.686 235.183 543.43C234.098 541.05 229.202 534.343 227.544 531.687C222.496 523.461 218.404 514.685 215.348 505.529C200.418 461.281 202.972 409.48 220.128 366.193C223.993 356.441 229.228 347.922 233.847 338.565ZM713.247 524.544C720.451 528.871 723.765 530.875 727.504 539.066C727.985 540.12 728.435 539.929 729.065 539.206C735.522 532.178 735.67 532.397 743.749 528.117C736.454 524.857 733.399 521.9 729.507 514.959C728.541 513.235 728.239 512.027 726.768 510.753C722.588 517.19 719.436 520.121 713.247 524.544Z"/><path d="M290.259 412.171C294.749 404.943 301.712 397.067 307.326 390.731L308.634 391.112C304.035 398.723 300.732 407.044 298.86 415.738C296.817 424.829 295.74 431.093 298.203 440.06C295.081 440.693 295.756 429.337 295.749 427.639C295.726 427.953 295.843 429.965 295.337 430.227L295.23 430.187C294.669 428.777 295.7 420.42 296.898 418.836L296.935 418.954L297.012 418.983C298.312 417.79 298.236 416.129 298.144 414.481C298.033 408.866 299.627 403.349 293.657 410.871C293.458 410.997 293.599 410.924 293.167 411.081C291.638 411.439 291.561 411.375 290.259 412.171Z"/><path fill="#131214" d="M307.326 390.731C307.767 390.25 309.158 388.549 309.716 388.424C310.269 388.75 308.843 390.755 308.634 391.112L307.326 390.731Z"/><path fill="#555" d="M580.034 527.65C584.118 527.244 582.341 528.262 579.708 528.879L580.034 527.65Z"/><path d="M633.305 504.832C634.494 505.971 634.662 507.849 635.353 509.509C639.845 520.311 645.681 522.599 655.134 526.808C651.355 530.625 649.832 532.425 647.814 537.469C647.755 537.616 647.707 537.586 647.527 537.624C646.898 537.403 646.534 536.754 646.127 536.221C639.096 527.503 631.993 524.185 621.63 521.162C626.36 516.511 630.547 510.885 633.305 504.832Z"/><path d="M726.768 510.753C728.239 512.027 728.541 513.235 729.507 514.959C733.399 521.9 736.454 524.857 743.749 528.117C735.67 532.397 735.522 532.178 729.065 539.206C728.435 539.929 727.985 540.12 727.504 539.066C723.765 530.875 720.451 528.871 713.247 524.544C719.436 520.121 722.588 517.19 726.768 510.753ZM730.716 527.171C731.132 526.775 731.28 526.174 731.096 525.63C730.912 525.086 730.429 524.699 729.858 524.636C729.287 524.574 728.732 524.849 728.435 525.34C728.053 525.973 728.198 526.791 728.775 527.253C729.351 527.716 730.181 527.681 730.716 527.171Z"/><path d="M728.435 525.34C728.732 524.849 729.287 524.574 729.858 524.636C730.429 524.699 730.912 525.086 731.096 525.63C731.28 526.174 731.132 526.775 730.716 527.171C730.181 527.681 729.351 527.716 728.775 527.253C728.198 526.791 728.053 525.973 728.435 525.34Z"/><defs><linearGradient id="gradient_0" gradientUnits="userSpaceOnUse" x1="541.73682" y1="308.53995" x2="515.64362" y2="464.74954"><stop offset="0" stop-color="#393635" stop-opacity="0.94901961"/><stop offset="1" stop-color="#3D3A39"/></linearGradient></defs><path fill="url(#gradient_0)" d="M235.911 333.303C228.307 305.897 250.609 278.827 276.565 271.87C300.308 265.645 325.548 269.006 346.835 281.227C360.581 289.24 376.258 299.44 389.035 309.031C404.041 320.295 418.115 333.717 433.17 345.05C441.624 351.781 450.525 358.013 458.951 364.712C489.409 388.928 521.574 410.782 556.722 427.638C566.637 432.395 578.113 438.181 588.701 441.353C621.053 451.343 655.579 451.924 688.25 443.03C720.741 434.512 757.816 419.798 789.351 439.163C810.939 452.42 825.991 483.196 811.438 506.906C807.408 513.472 801.345 522.423 794.013 525.268C796.181 523.48 802.123 518.748 802.874 516.545C811.315 491.793 794.319 453.035 763.573 461.601C748.499 465.8 741.157 474.986 726.884 479.43C718.535 468.378 713.301 465.164 699.729 461.786C682.327 457.456 669.882 465.855 654.553 472.717C648.231 475.546 641.14 477.638 634.321 479.639L634.119 479.028C629.283 464.776 605.339 460.659 592.471 458.973C576.242 456.846 559.155 465.494 543.945 470.88C542.799 459.534 540.962 451.366 534.612 441.71C526.912 429.999 522.502 427.275 508.739 429.732C492.503 432.63 483.23 436.611 469.886 445.65C470.067 443.765 470.221 441.877 470.347 439.988C471.445 422.881 468.593 400.22 457.818 385.422C456.298 383.412 452.159 382.01 449.779 382.296C429.637 384.716 409.307 401.441 395.551 414.929C396.456 410.498 397.103 406.017 397.488 401.51C399.162 380.703 394.948 358.514 381.17 341.867C379.435 339.771 376.193 337.674 373.472 337.889C355.365 339.319 335.449 356.4 323.562 368.129C323.722 356.479 322.974 346.789 319.883 335.288C316.885 323.385 309.313 302.931 297.565 296.748C274.099 284.397 243.395 322.203 233.847 338.565L235.911 333.303Z"/><defs><linearGradient id="gradient_1" gradientUnits="userSpaceOnUse" x1="538.38538" y1="689.95874" x2="549.40143" y2="523.48682"><stop offset="0" stop-color="#3A3737" stop-opacity="0.94509804"/><stop offset="1" stop-color="#3B3837"/></linearGradient></defs><path fill="url(#gradient_1)" d="M805.438 537.146C811.931 545.987 818.679 557.27 816.864 568.955C811.23 605.229 768.81 626.56 734.982 621.357C723.126 619.533 710.973 614.085 699.506 610.477C670.629 600.984 643.631 597.27 613.339 600.347C589.404 602.778 566.768 608.844 543.801 615.792C496.701 630.042 452.279 650.59 405.176 664.743C387.378 670.09 361.341 677.565 342.652 677.941C320.72 678.382 297.467 669.814 283.057 652.573C282.666 651.81 282.245 651.362 281.872 650.615C275.871 637.079 272.627 632.622 273.154 616.764C273.761 612.77 274.015 609.924 275.026 605.804C276.92 599.104 277.484 596.412 280.976 590.551C285.061 600.93 295.565 621.963 304.236 628.806C318.156 639.793 336.995 614.876 343.366 605.784C344.42 607.888 345.492 609.983 346.581 612.069C353.494 625.131 369.161 643.772 385.714 633.418C395.076 627.563 401.258 615.732 406.262 606.241C409.884 599.369 413.083 593.139 414.936 585.527C417.328 590.892 420.238 596.01 423.625 600.809C444.764 630.918 464.656 630.819 483.901 599.559C488.774 591.644 491.494 587.731 492.762 578.237L496.576 574.011C523.198 600.477 538.648 610.091 565.354 577.543C568.812 573.329 570.864 569.45 572.648 564.36C580.895 573.799 592.015 580.266 604.297 582.767C620.354 585.924 637.1 578.15 648.099 566.488C648.453 566.112 648.975 563.377 649.104 562.707L649.241 561.969L649.732 562.176C660.491 581.127 684.899 589.253 704.718 581.04C715.656 576.508 725.027 572.957 730.466 561.667C745.54 583.98 776.762 593.125 796.106 570.7C805.192 560.167 806.355 550.455 805.438 537.146Z"/><defs><linearGradient id="gradient_2" gradientUnits="userSpaceOnUse" x1="223.11244" y1="549.63489" x2="543.81934" y2="432.32312"><stop offset="0" stop-color="black" stop-opacity="0.89803922"/><stop offset="1" stop-color="black"/></linearGradient></defs><path fill="url(#gradient_2)" d="M293.167 411.081C293.599 410.924 293.458 410.997 293.657 410.871C295.863 413.638 295.738 415.908 298.144 414.481C298.236 416.129 298.312 417.79 297.012 418.983L296.935 418.954L296.898 418.836C295.7 420.42 294.669 428.777 295.23 430.187L295.337 430.227C295.843 429.965 295.726 427.953 295.749 427.639C295.756 429.337 295.081 440.693 298.203 440.06C310.198 453.972 330.806 463.311 349.047 464.871C358.905 465.714 368.643 463.173 377.746 459.565C378.433 467.236 377.963 472.283 384.492 477.442C397.4 487.64 420.335 492.964 436.312 491.419C443.914 490.74 451.225 488.17 457.58 483.944C458.324 490.547 459.212 494.793 465.007 499.072C480.029 510.16 500.662 514.576 519.064 513.328C527.174 512.766 532.152 507.439 536.306 501.023C547.864 516.461 559.15 523.279 578.729 527.513C579.089 527.591 579.772 527.631 580.034 527.65L579.708 528.879C575.337 530.894 572.765 533.493 569.356 536.804C556.327 515.816 514.064 522.422 496.05 531.96L491.516 539.052C477.451 526.03 439.096 523.484 422.384 533.389C419.963 534.824 418.559 536.964 417.037 539.251C416.716 538.903 416.391 538.559 416.062 538.219C408.025 529.967 384.695 526.597 373.48 526.31C365.023 526.093 348.602 528.198 342.386 534.58C337.172 539.932 334.592 551.191 334.803 558.586C310.487 530.36 296.884 500.369 295.916 462.592C294.12 464.69 292.347 466.808 290.597 468.944L289.779 468.907C286.994 472.597 285.434 475.947 283.269 480.005L282.766 478.747C280.925 482.741 274.006 501.341 273.626 504.925L271.085 506.803L271.255 507.308C272.277 506.764 272.664 506.481 273.738 506.136C274.027 509.763 271.216 516.255 271.356 521.68C270.559 519.577 269.71 514.399 268.756 511.426C268.918 515.908 269.892 518.028 270.101 522.065C270.267 525.25 269.184 532.164 269.342 535.172C269.751 542.933 269.459 560.8 271.036 567.673L271.388 566.93L271.748 566.721L271.862 568.226C273.586 565.215 269.449 555.062 270.735 548.559C271.078 552.203 273.202 568.553 274.567 570.76L275.275 570.88C276.382 575.316 279.071 586.637 280.976 590.551C277.484 596.412 276.92 599.104 275.026 605.804C274.358 606.172 273.738 606.503 273.003 606.728C272.935 606.764 272.866 606.801 272.798 606.837C272.605 608.605 272.848 611.032 272.943 612.75C273.027 614.087 273.098 615.425 273.154 616.764C272.627 632.622 275.871 637.079 281.872 650.615C279.72 648.641 279.251 648.059 277.719 645.486C277.757 644.59 274.635 639.419 274.017 638.483C270.733 637.379 269.064 645.032 269.017 647.522C262.582 633.519 253.946 611.245 246.888 598.291L245.909 598.065C245.436 595.576 248.173 590.886 246.988 587.757C246.621 586.79 246.799 585.122 246.726 584.099C246.24 584.327 246.728 585.829 246.363 586.368C245.659 586.72 245.544 585.966 245.003 585.894C244 585.759 243.884 584.667 242.935 584.398C241.777 584.071 241.096 582.897 239.866 582.701C239.601 582.654 239.758 581.588 239.158 581.707C238.524 582.46 239.691 583.886 238.455 584.501C236.931 583.925 237.059 582.447 236.391 582.269L236.4 582.304L236.064 582.262L236.106 582.254C235.88 582.712 235.724 583.715 235.617 583.794L235.509 583.67C235.387 582.753 237.432 578.592 237.817 578.126C238.141 578.626 238.049 579.466 238.253 579.686C239.729 581.273 239.647 578.9 239.393 578.027C239.254 577.55 239.653 576.487 238.826 576.504C238.351 576.795 238.676 576.963 238.276 577.427C238.14 575.583 238.373 576.311 237.784 574.695C239.146 572.893 240.395 575.451 244.222 573.242C247.571 571.309 245.445 565.898 247.038 566.763C249.72 568.22 248.747 563.545 248.745 562.145C247.01 559.5 245.029 556.944 243.199 554.314L242.787 553.731C241.989 553.112 241.247 552.436 240.478 551.782C239.234 549.794 238.68 548.604 236.773 547.066L235.183 543.43C243.479 552.686 247.775 558.933 258.221 566.621C257.552 563.253 256.033 556.347 255.97 553.191C256.809 545.825 255.045 538.634 255.243 531.629C255.693 515.695 257.231 498.881 260.666 483.376C260.684 487.839 259.105 497.664 258.425 502.558C256.488 516.516 255.471 529.843 256.942 543.946C257.216 546.578 257.522 552.609 258.081 554.696C260.199 552.648 256.971 536.996 257.226 533.529C257.842 525.144 258.202 497.416 261.077 490.976C261.473 492.212 261.807 493.132 262.272 494.327L262.979 494.565L263.634 493.401C262.86 491.128 261.903 488.857 262.245 486.485C262.61 484.06 262.998 481.639 263.407 479.221L262.777 479.875C262.742 479.199 266.227 466.606 266.703 464.742L267.02 464.284C267.549 464.275 268.078 464.271 268.607 464.274C270.727 464.29 271.479 464.492 271.279 462.479C271.246 462.151 271.283 461.612 271.252 461.223C271.138 459.784 269.144 459.764 269.305 458.543C269.426 458.18 269.546 457.818 269.667 457.456C269.819 456.186 270.268 455.106 271.095 454.12C271.775 453.309 273.494 454.106 274.107 453.674C274.55 453.361 274.253 451.524 274.564 450.996C274.865 450.303 273.794 448.913 273.472 448.449C273.406 447.561 273.383 447.346 273.188 446.492C273.905 445.343 274.358 443.968 275.726 443.629C277.294 444.642 278.88 445.565 279.943 443.286C280.831 439.553 275.355 441.485 277.467 436.784C277.744 436.166 277.797 435.496 277.867 434.843C282.11 432.606 279.993 429.061 283.872 426.247C285.586 423.861 284.666 423.845 286.794 420.786C289.069 417.516 290.569 414.38 293.167 411.081Z"/><path fill="#C00" d="M245.909 598.065L246.888 598.291C253.946 611.245 262.582 633.519 269.017 647.522L269.597 648.254C270.016 649.958 271.323 652.752 272.212 654.268C273.158 656.097 274.785 660.065 275.659 661.505C278.342 668.607 278.749 676.481 276.399 683.733C273.766 691.679 268.041 698.229 260.518 701.9C245.289 709.261 225.398 702.727 218.323 687.09C211.806 672.187 219.36 658.042 225.254 644.523C231.522 630.145 238.051 616.243 243.878 601.748L244.248 600.991C245.038 599.783 245.325 599.361 245.909 598.065Z"/><path fill="#C00" d="M229.548 594.869C227.06 597.87 224.844 599.551 221.034 600.672C216.498 601.994 211.616 601.364 207.564 598.933C203.752 596.712 201.047 592.991 200.109 588.679C197.74 578.026 208.088 563.444 212.082 553.648C212.899 551.643 214.522 548.574 215.677 546.806L216.607 546.693L217.91 547.991C219.618 553.086 222.184 557.287 224.023 562.1L225.702 565.119C226.563 567.393 229.054 572.226 230.21 574.566C233.696 583.243 233.867 584.316 230.656 593.08C230.154 593.773 229.963 594.126 229.548 594.869Z"/><path d="M242.787 553.731L243.199 554.314C245.029 556.944 247.01 559.5 248.745 562.145C248.747 563.545 249.72 568.22 247.038 566.763C245.445 565.898 247.571 571.309 244.222 573.242C240.395 575.451 239.146 572.893 237.784 574.695C238.373 576.311 238.14 575.583 238.276 577.427C238.676 576.963 238.351 576.795 238.826 576.504C239.653 576.487 239.254 577.55 239.393 578.027C239.647 578.9 239.729 581.273 238.253 579.686C238.049 579.466 238.141 578.626 237.817 578.126C237.432 578.592 235.387 582.753 235.509 583.67L235.617 583.794C235.724 583.715 235.88 582.712 236.106 582.254L236.064 582.262L236.4 582.304L236.391 582.269C237.059 582.447 236.931 583.925 238.455 584.501C239.691 583.886 238.524 582.46 239.158 581.707C239.758 581.588 239.601 582.654 239.866 582.701C241.096 582.897 241.777 584.071 242.935 584.398C243.884 584.667 244 585.759 245.003 585.894C245.544 585.966 245.659 586.72 246.363 586.368C246.728 585.829 246.24 584.327 246.726 584.099C246.799 585.122 246.621 586.79 246.988 587.757C248.173 590.886 245.436 595.576 245.909 598.065C245.325 599.361 245.038 599.783 244.248 600.991C244.958 597.777 246.143 596.747 244.787 594.253C244.641 593.985 245.233 594.189 245.01 593.486C243.867 592.433 242.247 594.502 243.319 591.529C244.072 589.443 237.734 592.374 237.277 590.461C237.091 589.684 235.546 588.459 234.471 589.163C232.945 590.161 232.623 591.455 230.656 593.08C233.867 584.316 233.696 583.243 230.21 574.566C232.484 571.577 232.943 569.426 233.761 568.335C234.247 568.203 235.197 568.254 235.71 568.291C237.873 570.931 237.869 571.324 241.676 569.196C245.388 567.121 240.916 562.443 242.358 559.26C242.975 557.9 242.768 555.041 242.787 553.731Z"/><defs><linearGradient id="gradient_3" gradientUnits="userSpaceOnUse" x1="224.63507" y1="557.90851" x2="240.20903" y2="566.99854"><stop offset="0" stop-color="black" stop-opacity="0.25490198"/><stop offset="1" stop-color="black" stop-opacity="0.43921569"/></linearGradient></defs><path fill="url(#gradient_3)" d="M226.248 549.472C226.245 549.239 226.241 549.006 226.237 548.774C226.248 547.25 227.37 547.624 227.99 548.519C228.712 549.561 227.453 551.119 228.915 551.381C230.588 552.123 231.357 553.174 233.464 552.641C234.202 552.503 236.698 553.409 237.722 553.68C239.176 552.668 238.693 552.453 240.478 551.782C241.247 552.436 241.989 553.112 242.787 553.731C242.768 555.041 242.975 557.9 242.358 559.26C240.916 562.443 245.388 567.121 241.676 569.196C237.869 571.324 237.873 570.931 235.71 568.291C235.197 568.254 234.247 568.203 233.761 568.335C232.943 569.426 232.484 571.577 230.21 574.566C229.054 572.226 226.563 567.393 225.702 565.119C226.289 564.307 229.416 560.742 227.764 559.43C227.032 560.296 227.241 560.859 226 559.42C226.186 558.233 228.354 548.088 226.248 549.472Z"/><path d="M265.642 463.383C265.996 463.836 266.349 464.289 266.703 464.742C266.227 466.606 262.742 479.199 262.777 479.875L263.407 479.221C262.998 481.639 262.61 484.06 262.245 486.485C261.903 488.857 262.86 491.128 263.634 493.401L262.979 494.565L262.272 494.327C261.807 493.132 261.473 492.212 261.077 490.976C258.202 497.416 257.842 525.144 257.226 533.529C256.971 536.996 260.199 552.648 258.081 554.696C257.522 552.609 257.216 546.578 256.942 543.946C255.471 529.843 256.488 516.516 258.425 502.558C259.105 497.664 260.684 487.839 260.666 483.376C257.231 498.881 255.693 515.695 255.243 531.629C255.045 538.634 256.809 545.825 255.97 553.191C251.073 530.259 257.122 485.551 265.642 463.383Z"/><path d="M268.756 511.426C269.71 514.399 270.559 519.577 271.356 521.68C271.216 516.255 274.027 509.763 273.738 506.136C272.664 506.481 272.277 506.764 271.255 507.308L271.085 506.803L273.626 504.925C274.006 501.341 280.925 482.741 282.766 478.747L283.269 480.005C285.434 475.947 286.994 472.597 289.779 468.907L290.597 468.944C290.526 469.141 290.456 469.338 290.385 469.535C270.934 502.048 267.835 533.256 275.275 570.88L274.567 570.76C273.202 568.553 271.078 552.203 270.735 548.559C269.449 555.062 273.586 565.215 271.862 568.226L271.748 566.721L271.388 566.93L271.036 567.673C269.459 560.8 269.751 542.933 269.342 535.172C269.184 532.164 270.267 525.25 270.101 522.065C269.892 518.028 268.918 515.908 268.756 511.426Z"/><path d="M272.212 654.268C273.031 652.144 275.931 646.876 277.719 645.486C279.251 648.059 279.72 648.641 281.872 650.615C282.245 651.362 282.666 651.81 283.057 652.573C281.185 653.496 276.613 659.786 275.659 661.505C274.785 660.065 273.158 656.097 272.212 654.268Z"/><path d="M220.13 552.328C228.7 551.958 223.146 547.157 223.887 546.067C225.776 545.369 227.07 545.09 228.96 544.174L229.033 543.848L229.126 543.791C230.576 543.762 231.991 550.687 236.012 548.107C236.235 547.963 236.264 548.301 236.55 547.589L236.773 547.066C238.68 548.604 239.234 549.794 240.478 551.782C238.693 552.453 239.176 552.668 237.722 553.68C236.698 553.409 234.202 552.503 233.464 552.641C231.357 553.174 230.588 552.123 228.915 551.381C227.453 551.119 228.712 549.561 227.99 548.519C227.37 547.624 226.248 547.25 226.237 548.774C226.241 549.006 226.245 549.239 226.248 549.472C224.983 553.833 223.787 555.424 220.13 552.328Z"/><defs><linearGradient id="gradient_4" gradientUnits="userSpaceOnUse" x1="270.80716" y1="642.96716" x2="275.19284" y2="646.53284"><stop offset="0" stop-color="black" stop-opacity="0.68627453"/><stop offset="1" stop-color="black" stop-opacity="0.75294119"/></linearGradient></defs><path fill="url(#gradient_4)" d="M274.017 638.483C274.635 639.419 277.757 644.59 277.719 645.486C275.931 646.876 273.031 652.144 272.212 654.268C271.323 652.752 270.016 649.958 269.597 648.254C273.343 645.891 268.661 643.758 274.017 638.483Z"/><path d="M230.656 593.08C232.623 591.455 232.945 590.161 234.471 589.163C235.546 588.459 237.091 589.684 237.277 590.461C237.734 592.374 244.072 589.443 243.319 591.529C242.247 594.502 243.867 592.433 245.01 593.486C245.233 594.189 244.641 593.985 244.787 594.253C246.143 596.747 244.958 597.777 244.248 600.991L243.878 601.748C244 599.738 244.419 597.726 244.389 595.778C244.287 595.094 242.63 595.022 242.791 594.241C242.921 592.792 241.342 593.038 240.413 593.834C238.45 595.517 238.648 598.447 237.831 599.882C237.748 599.93 237.691 599.997 237.563 599.912C236.195 599.067 237.509 596.032 237.102 595.33C236.483 594.261 234.837 593.802 233.725 593.636C231.997 593.378 231.207 594.144 229.548 594.869C229.963 594.126 230.154 593.773 230.656 593.08Z"/><path d="M290.259 412.171C291.561 411.375 291.638 411.439 293.167 411.081C290.569 414.38 289.069 417.516 286.794 420.786C284.666 423.845 285.586 423.861 283.872 426.247C279.993 429.061 282.11 432.606 277.867 434.843L277.37 433.437C280.613 427.17 286.16 417.936 290.259 412.171Z"/><path d="M217.91 547.991C219.564 549.516 219.6 550.158 220.13 552.328C223.787 555.424 224.983 553.833 226.248 549.472C228.354 548.088 226.186 558.233 226 559.42L225.681 559.957C225.185 560.851 224.677 560.878 224.023 562.1C222.184 557.287 219.618 553.086 217.91 547.991Z"/><path d="M272.14 445.569C272.475 446.252 272.423 446.377 273.188 446.492C273.383 447.346 273.406 447.561 273.472 448.449C273.168 450.355 273.138 452.211 270.727 453.02C270.581 452.905 270.434 452.79 270.288 452.675C269.069 453.537 268.599 459.915 268.802 461.272C268.958 462.321 267.663 463.457 267.02 464.284L266.703 464.742C266.349 464.289 265.996 463.836 265.642 463.383C265.924 461.138 271.04 447.485 272.14 445.569Z"/><defs><linearGradient id="gradient_5" gradientUnits="userSpaceOnUse" x1="279.60529" y1="441.45496" x2="274.59891" y2="440.48792"><stop offset="0" stop-color="black" stop-opacity="0.95686275"/><stop offset="1" stop-color="black"/></linearGradient></defs><path fill="url(#gradient_5)" d="M277.37 433.437L277.867 434.843C277.797 435.496 277.744 436.166 277.467 436.784C275.355 441.485 280.831 439.553 279.943 443.286C278.88 445.565 277.294 444.642 275.726 443.629C275.227 443.127 274.662 442.749 274.241 442.164L273.689 441.473C274.923 438.598 275.89 436.207 277.37 433.437Z"/><path d="M273.472 448.449C273.794 448.913 274.865 450.303 274.564 450.996C274.253 451.524 274.55 453.361 274.107 453.674C273.494 454.106 271.775 453.309 271.095 454.12C270.268 455.106 269.819 456.186 269.667 457.456C269.546 457.818 269.426 458.18 269.305 458.543C269.144 459.764 271.138 459.784 271.252 461.223C271.283 461.612 271.246 462.151 271.279 462.479C271.479 464.492 270.727 464.29 268.607 464.274C268.078 464.271 267.549 464.275 267.02 464.284C267.663 463.457 268.958 462.321 268.802 461.272C268.599 459.915 269.069 453.537 270.288 452.675C270.434 452.79 270.581 452.905 270.727 453.02C273.138 452.211 273.168 450.355 273.472 448.449Z"/><path d="M293.657 410.871C299.627 403.349 298.033 408.866 298.144 414.481C295.738 415.908 295.863 413.638 293.657 410.871Z"/><path d="M269.017 647.522C269.064 645.032 270.733 637.379 274.017 638.483C268.661 643.758 273.343 645.891 269.597 648.254L269.017 647.522Z"/><path d="M226 559.42C227.241 560.859 227.032 560.296 227.764 559.43C229.416 560.742 226.289 564.307 225.702 565.119L224.023 562.1C224.677 560.878 225.185 560.851 225.681 559.957L226 559.42Z"/><path d="M273.154 616.764C273.098 615.425 273.027 614.087 272.943 612.75C272.848 611.032 272.605 608.605 272.798 606.837C272.866 606.801 272.935 606.764 273.003 606.728C273.738 606.503 274.358 606.172 275.026 605.804C274.015 609.924 273.761 612.77 273.154 616.764Z"/><path d="M273.689 441.473L274.241 442.164C274.662 442.749 275.227 443.127 275.726 443.629C274.358 443.968 273.905 445.343 273.188 446.492C272.423 446.377 272.475 446.252 272.14 445.569C272.638 444.138 273.132 442.873 273.689 441.473Z"/></svg>