<?xml version="1.0" encoding="utf-8" ?><svg xmlns="http://www.w3.org/2000/svg" xmlns:xlink="http://www.w3.org/1999/xlink" width="1024" height="1024" viewBox="0 0 1024 1024"><defs><linearGradient id="gradient_0" gradientUnits="userSpaceOnUse" x1="815.61609" y1="574.38721" x2="295.69827" y2="390.95029"><stop offset="0" stop-color="#FFCF23"/><stop offset="1" stop-color="#FFFC1E"/></linearGradient></defs><path fill="url(#gradient_0)" d="M400.595 192.683L401.074 192.106C404.374 188.072 407.922 181.726 410.797 177.184C415.847 169.331 420.936 161.503 426.065 153.701L481.418 69.8264C484.666 64.918 500.211 40.7831 503.286 37.8764L504.189 37.826L504.867 38.4387C504.891 42.7455 503.283 51.3986 502.557 55.9152C500.874 66.0691 499.271 76.2358 497.745 86.4144C497.146 90.4487 496.027 96.4472 495.755 100.354L496.489 100.278C505.097 99.3384 521.085 95.348 530.287 93.497L697.205 59.1624L741.006 50.0597C744.601 49.3309 759.54 45.6113 761.851 46.7672C763.362 50.7598 754.874 61.3569 752.653 65.3061C746.404 76.4183 737.592 88.0365 731.873 99.2928C744.053 97.496 829.07 76.2862 831.667 77.0273C831.735 78.9631 831.369 79.6588 830.001 81.4222C820.827 93.2439 811.668 105.126 802.614 117.041C784.075 141.812 765.406 166.486 746.609 191.062C717.315 229.936 688.255 268.986 659.43 308.209C650.679 319.763 642.028 331.393 633.478 343.096C629.344 348.655 623.604 355.188 620.653 361.247C631.248 359.737 641.722 357.433 652.32 355.761C695.39 348.937 738.408 341.788 781.371 334.317L833.807 325.225C838.993 324.345 852.039 321.239 856.274 321.936L856.88 322.535C856.232 325.27 817.274 363.939 812.138 369.757C824.461 368.899 899.902 354.491 903.335 355.686C903.651 356.452 903.856 356.464 903.521 357.286C901.745 361.648 866.731 398.094 861.488 403.796L818.357 451.159C775.682 497.976 733.426 546.953 689.799 592.678C710.801 611.682 733.449 629.449 754.252 648.733C762.203 656.103 777.774 666.573 784.015 674.597C777.667 672.223 770.102 668.196 763.936 665.125L732.208 649.302C711.186 638.824 689.56 629.155 668.714 618.366C631.456 659.513 594.479 700.914 557.787 742.567L521.012 783.519C516.69 788.38 508.488 797.069 504.803 802.021C503.659 805.934 497.312 830.362 495.829 831.728C494.525 830.654 496.416 816.087 496.8 813.382L496.395 812.032C494.539 812.526 487.019 821.831 485.156 823.896C473.36 836.933 461.655 850.052 450.04 863.251L383.801 937.474C376.052 946.278 368.604 955.508 360.74 964.202C358.683 966.475 357.787 967.497 355.556 966.263C353.789 959.099 371.425 902.329 371.995 888.599L335.894 934.976C333.518 938.062 321.952 953.638 319.816 955.369L319.097 955.249C318.901 952.775 342.127 878.385 344.301 871.246L418.375 626.108C414.386 625.993 382.317 632.866 375.93 634.128L273.587 653.945L232.836 661.81C228.596 662.625 213.66 666.667 210.352 665.256C210.573 660.528 229.679 627.778 232.973 619.971L233.227 619.352C230.648 620.439 212.751 623.818 209.122 624.482L169.249 631.903C160.901 633.481 152.617 635.124 144.328 636.983C142.004 637.504 136.075 639.076 134.39 637.621C134.237 634.258 147.006 622.328 150.125 619.087L180.073 587.817L286.01 475.868L308.105 452.775C312.48 448.228 320.219 440.869 323.233 435.671L318.032 432.198C299.626 436.88 280.802 440.288 262.337 444.762C255.711 446.367 248.943 447.948 242.247 449.21C244.96 442.999 256.225 425.427 260.104 419.21C271.647 400.94 282.95 382.519 294.01 363.953C296.587 359.559 302.808 350.707 304.163 346.451L304.451 346.203C304.671 345.93 304.895 345.66 305.124 345.394C307.115 343.089 307.95 338.797 310.08 337.052C311.357 336.264 326.839 309.367 329.364 305.25L371.67 237.673C375.867 231.062 389.155 211.489 391.937 205.383C388.615 189.182 385.477 171.789 381.699 155.773C382.125 154.131 381.895 153.62 383.157 152.546C387.627 161.776 391.505 171.576 395.562 181.034C396.39 182.963 400.096 191.108 400.595 192.683Z"/><defs><linearGradient id="gradient_1" gradientUnits="userSpaceOnUse" x1="852.23523" y1="122.44431" x2="453.62405" y2="315.21402"><stop offset="0" stop-color="#FDA212"/><stop offset="1" stop-color="#FDC01D"/></linearGradient></defs><path fill="url(#gradient_1)" d="M400.595 192.683L401.074 192.106C404.374 188.072 407.922 181.726 410.797 177.184C415.847 169.331 420.936 161.503 426.065 153.701L481.418 69.8264C484.666 64.918 500.211 40.7831 503.286 37.8764L504.189 37.826L504.867 38.4387C504.891 42.7455 503.283 51.3986 502.557 55.9152C500.874 66.0691 499.271 76.2358 497.745 86.4144C497.146 90.4487 496.027 96.4472 495.755 100.354L496.489 100.278C505.097 99.3384 521.085 95.348 530.287 93.497L697.205 59.1624L741.006 50.0597C744.601 49.3309 759.54 45.6113 761.851 46.7672C763.362 50.7598 754.874 61.3569 752.653 65.3061C746.404 76.4183 737.592 88.0365 731.873 99.2928C744.053 97.496 829.07 76.2862 831.667 77.0273C831.735 78.9631 831.369 79.6588 830.001 81.4222C820.827 93.2439 811.668 105.126 802.614 117.041C784.075 141.812 765.406 166.486 746.609 191.062C717.315 229.936 688.255 268.986 659.43 308.209C650.679 319.763 642.028 331.393 633.478 343.096C629.344 348.655 623.604 355.188 620.653 361.247C631.248 359.737 641.722 357.433 652.32 355.761C695.39 348.937 738.408 341.788 781.371 334.317L833.807 325.225C838.993 324.345 852.039 321.239 856.274 321.936L856.88 322.535C856.232 325.27 817.274 363.939 812.138 369.757C800.981 380.646 789.595 394.529 778.466 405.719C776.459 407.738 769.034 416.083 767.486 417.107C765.747 416.21 741.269 421.119 738.576 422.199C706.195 429.113 673.433 433.544 640.915 439.72C630.101 441.774 618.949 443.024 608.03 445.057C606.856 444.971 607.081 445.004 605.984 444.716C607.291 442.017 671.06 408.324 679.249 403.777C696.582 394.052 714.037 384.545 731.609 375.259C739.852 370.849 748.804 365.672 757.13 361.749L754.876 361.057C708.903 376.782 660.823 390.026 614.274 404.105C583.398 413.444 553 422.977 521.937 431.751C525.901 420.119 530.633 408.287 534.836 396.69L561.811 321.708C573.22 289.974 583.497 257.09 596.818 226.185C608.552 198.963 620.856 171.24 633.226 144.283C637.177 135.873 641.079 127.441 644.933 118.985C647.066 114.328 650.086 108.3 651.488 103.488C636.527 124.708 616.33 148.406 599.99 168.888C568.951 208.218 537.433 247.167 505.444 285.728C505.113 277.673 505.475 267.263 505.51 259.024L505.54 210.056C505.591 197.434 505.957 184.574 505.356 171.992C502.858 181.97 500.567 202.417 499.123 213.313C496.539 234.081 493.801 254.83 490.908 275.557C489.547 285.744 488.482 295.737 486.822 305.906C480.543 312.077 469.49 328.179 462.826 336.092C450.985 311.111 440.416 283.155 428.579 258.062C425.214 250.929 400.828 195.982 400.595 192.683Z"/><path fill="#FFD700" d="M754.876 361.057C757.826 359.739 762.74 358.735 757.13 361.749L754.876 361.057Z"/><path fill="#FCBA1A" d="M304.163 346.451L304.451 346.203C311.628 351.898 318.793 358.399 325.909 364.264C341.268 376.826 356.744 389.243 372.337 401.512C378.576 406.437 388.525 414.889 394.833 419.179C390.615 423.649 384.638 431.721 381.29 436.879C366.368 435.529 343.892 433.82 329.385 430.843L327.617 431.383C326.487 432.685 325.454 434.158 324.366 435.522C338.298 442.884 357.629 448.835 370.094 456.221C353.53 469.197 336.502 481.8 320.066 494.908C314.745 499.152 299.727 509.386 295.935 513.223C297.885 513.221 298.319 513.152 300.228 512.869L301.027 514.201C327.176 511.668 366.534 508.245 392.133 508.544C345.163 534.376 297.709 559.32 249.798 583.363C244.844 585.805 226.363 596.104 222.701 597.066L224.244 598.253C232.087 595.205 244.46 592.102 252.687 590.012C265.738 586.792 278.763 583.465 291.759 580.031C336.605 568.449 381.381 556.596 426.083 544.472C447.052 538.906 472.687 533.036 492.896 526.577C490.452 535.356 487.034 544.218 484.207 552.935L466.037 608.788L389.107 837.226C417.575 796.386 446.821 756.093 476.829 716.371C487.385 702.359 497.822 686.948 508.697 673.289C507.842 680.1 508.082 700.167 507.067 704.08C506.842 710.586 496.45 813.941 496.8 813.382L496.395 812.032C494.539 812.526 487.019 821.831 485.156 823.896C473.36 836.933 461.655 850.052 450.04 863.251L383.801 937.474C376.052 946.278 368.604 955.508 360.74 964.202C358.683 966.475 357.787 967.497 355.556 966.263C353.789 959.099 371.425 902.329 371.995 888.599L335.894 934.976C333.518 938.062 321.952 953.638 319.816 955.369L319.097 955.249C318.901 952.775 342.127 878.385 344.301 871.246L418.375 626.108C414.386 625.993 382.317 632.866 375.93 634.128L273.587 653.945L232.836 661.81C228.596 662.625 213.66 666.667 210.352 665.256C210.573 660.528 229.679 627.778 232.973 619.971L233.227 619.352C230.648 620.439 212.751 623.818 209.122 624.482L169.249 631.903C160.901 633.481 152.617 635.124 144.328 636.983C142.004 637.504 136.075 639.076 134.39 637.621C134.237 634.258 147.006 622.328 150.125 619.087L180.073 587.817L286.01 475.868L308.105 452.775C312.48 448.228 320.219 440.869 323.233 435.671L318.032 432.198C299.626 436.88 280.802 440.288 262.337 444.762C255.711 446.367 248.943 447.948 242.247 449.21C244.96 442.999 256.225 425.427 260.104 419.21C271.647 400.94 282.95 382.519 294.01 363.953C296.587 359.559 302.808 350.707 304.163 346.451Z"/><path fill="#FF9F00" d="M371.995 888.599C373.251 885.516 382.097 874.258 384.439 871.127C390.04 863.567 395.517 855.916 400.87 848.177L484.894 729.493C489.45 723.164 493.931 716.78 498.334 710.344C500.187 707.581 503.85 700.348 506.388 699.339C507.399 700.807 507.044 702.012 507.067 704.08C506.842 710.586 496.45 813.941 496.8 813.382L496.395 812.032C494.539 812.526 487.019 821.831 485.156 823.896C473.36 836.933 461.655 850.052 450.04 863.251L383.801 937.474C376.052 946.278 368.604 955.508 360.74 964.202C358.683 966.475 357.787 967.497 355.556 966.263C353.789 959.099 371.425 902.329 371.995 888.599Z"/><path fill="#FF9F00" d="M233.227 619.352C274.607 611.918 315.946 604.26 357.244 596.379L399.464 588.893C409.995 587.055 421.224 585.281 431.559 582.633C430.364 586.835 419.669 625.031 418.375 626.108C414.386 625.993 382.317 632.866 375.93 634.128L273.587 653.945L232.836 661.81C228.596 662.625 213.66 666.667 210.352 665.256C210.573 660.528 229.679 627.778 232.973 619.971L233.227 619.352Z"/><path fill="#FFF176" d="M295.935 513.223C297.885 513.221 298.319 513.152 300.228 512.869L301.027 514.201C300.04 514.39 289.884 516.003 295.935 513.223Z"/><path fill="#3F0A04" d="M327.617 431.383L327.026 431.183C324.176 430.272 329.115 429.424 329.748 429.247C329.963 429.8 329.602 430.349 329.385 430.843L327.617 431.383Z"/><path fill="#FFF176" d="M222.701 597.066L224.244 598.253C222.497 598.606 220.11 599.483 222.701 597.066Z"/><path fill="white" d="M579.286 255.02L580.623 256.032C564.696 292.165 549.441 328.592 534.867 365.292L500.372 453.27C509.645 450.558 519.169 447.872 528.33 444.816C555.566 435.73 583.291 428.076 610.491 418.896L653.275 404.61C658.994 402.642 667.845 398.799 673.056 397.466C667.851 401.627 657.332 406.972 651.174 410.598C635.59 419.805 619.908 428.843 604.13 437.712C595.818 442.358 579.481 451.056 572.023 456.225C573.443 456.851 575.48 456.804 576.998 456.478C580.523 455.723 578.519 456.04 581.988 456.517L582.681 456.617C588.161 456.284 594.301 455.223 599.912 454.698C616.608 453.143 633.26 451.158 649.853 448.743C656.732 447.724 667.354 446.254 673.928 444.336L674.43 444.427C675.544 444.622 675.119 444.294 676.208 444.945L676.408 444.716L676.558 444.802C676.595 445.216 674.93 445.298 674.758 445.313C673.926 445.384 673.403 445.981 672.813 446.516L669.837 447.478L672.219 448.496C675.765 447.923 738.168 423.819 739.082 422.919L738.576 422.199C741.269 421.119 765.747 416.21 767.486 417.107C769.034 416.083 776.459 407.738 778.466 405.719C789.595 394.529 800.981 380.646 812.138 369.757C824.461 368.899 899.902 354.491 903.335 355.686C903.651 356.452 903.856 356.464 903.521 357.286C901.745 361.648 866.731 398.094 861.488 403.796L818.357 451.159C775.682 497.976 733.426 546.953 689.799 592.678C687.319 591.323 676.797 581.711 673.904 579.401C662.27 570.11 650.73 560.513 639.426 550.824C648.887 541.954 657.121 532.64 666.232 523.481C654.95 521.14 637.803 520.516 626.187 519.26C613.562 517.894 600.204 516.274 587.59 515.611C600.063 527.506 613.171 538.763 625.931 550.285L689.285 607.207C693.722 611.168 698.329 614.672 703.059 618.248C705.536 620.12 709.442 622.681 711.51 624.667C701.732 621.595 690.558 615.52 681.469 610.425C644.417 589.653 604.987 571.649 568.307 550.421C570.202 557.191 571.555 564.083 573.306 570.912C577.35 586.585 581.621 602.199 586.119 617.748C574.251 601.721 562.473 583.41 550.799 568.033C548.592 574.741 547.052 581.653 545.262 588.484C538.5 614.287 531.629 639.867 523.828 665.385C519.534 679.431 516.75 694.274 512.129 708.323C512.225 676.821 510.135 645.358 509.591 613.867C509.537 610.744 510.438 601.975 509.234 599.726C506.64 601.397 501.336 613.996 499.671 617.306C478.465 659.432 456.45 701.195 433.71 742.515C428.606 751.79 425.116 761.656 419.683 771.076C420.135 768.407 432.454 745.169 431.896 743.13L431.753 742.983C426.55 751.711 419.484 769.36 414.677 779.396L413.184 778.872C442.67 709.566 468.056 638.292 494.077 567.631C501.775 546.725 508.87 525.503 516.833 504.711C479.053 516.045 440.28 526.008 402.184 537.491L352.573 552.37C347.543 553.908 336.881 557.931 332.465 558.753C335.915 554.751 428.177 505.701 440.699 498.501L439.631 496.795C416.328 498.991 392.852 499.432 369.501 500.93C366.105 501.148 362.667 501.481 359.272 501.568C357.127 501.441 353.019 502.227 352.425 500.529C378.647 494.497 404.566 486.078 430.478 478.821C436.522 477.128 442.685 475.41 448.579 473.27C431.419 468.388 413.156 459.897 394.99 454.287L395.669 452.262C408.409 453.883 417.969 454.207 430.744 454.673C438.706 454.963 446.187 456.072 454.594 456.199C442.298 448.419 436.08 442.643 425.071 433.836L382.137 399.03L382.698 397.605C406.619 413.378 433.097 424.596 456.401 439.448C453.317 421.129 450.522 402.492 447.203 384.197C445.279 373.587 443.684 355.311 440.775 345.566C441.064 344.446 440.86 343.416 441.928 343.142C443.979 347.837 445.542 353.335 447.75 357.874C459.112 381.222 467.489 406.596 479.147 429.678C479.72 426.401 480.078 421.952 480.602 418.462C482.433 406.789 484.191 395.104 485.875 383.409C489.652 358.101 493.592 332.818 497.697 307.562C499.576 306.494 499.438 317.926 499.563 319.223C499.642 327.23 499.684 395.113 500.686 397.224C501.974 395.557 505.756 387.707 507.034 385.361C511.173 377.857 515.373 370.388 519.634 362.953L579.286 255.02Z"/><path fill="#FF9F00" d="M812.138 369.757C824.461 368.899 899.902 354.491 903.335 355.686C903.651 356.452 903.856 356.464 903.521 357.286C901.745 361.648 866.731 398.094 861.488 403.796L818.357 451.159C775.682 497.976 733.426 546.953 689.799 592.678C687.319 591.323 676.797 581.711 673.904 579.401C662.27 570.11 650.73 560.513 639.426 550.824C648.887 541.954 657.121 532.64 666.232 523.481C680.702 525.826 695.864 527.155 710.408 529.262C716.235 530.106 724.869 530.889 730.383 532.276L731.115 531.28C723.903 529.459 713.923 525.431 706.761 522.936C696.552 519.379 686.191 516.248 676.063 512.678C695.496 493.627 713.455 474.064 732.019 454.253L767.486 417.107C769.034 416.083 776.459 407.738 778.466 405.719C789.595 394.529 800.981 380.646 812.138 369.757Z"/><path fill="#FCBA1A" d="M731.115 531.28C731.794 531.419 733.152 531.6 733.581 532.227C733.231 532.811 730.91 532.365 730.383 532.276L731.115 531.28Z"/><path fill="#FFF176" d="M738.576 422.199C741.269 421.119 765.747 416.21 767.486 417.107L732.019 454.253C713.455 474.064 695.496 493.627 676.063 512.678C686.191 516.248 696.552 519.379 706.761 522.936C713.923 525.431 723.903 529.459 731.115 531.28L730.383 532.276C724.869 530.889 716.235 530.106 710.408 529.262C695.864 527.155 680.702 525.826 666.232 523.481C654.95 521.14 637.803 520.516 626.187 519.26C613.562 517.894 600.204 516.274 587.59 515.611C600.063 527.506 613.171 538.763 625.931 550.285L689.285 607.207C693.722 611.168 698.329 614.672 703.059 618.248C705.536 620.12 709.442 622.681 711.51 624.667C701.732 621.595 690.558 615.52 681.469 610.425C644.417 589.653 604.987 571.649 568.307 550.421C570.202 557.191 571.555 564.083 573.306 570.912C577.35 586.585 581.621 602.199 586.119 617.748C574.251 601.721 562.473 583.41 550.799 568.033C548.592 574.741 547.052 581.653 545.262 588.484C538.5 614.287 531.629 639.867 523.828 665.385C519.534 679.431 516.75 694.274 512.129 708.323C512.225 676.821 510.135 645.358 509.591 613.867C509.537 610.744 510.438 601.975 509.234 599.726C506.64 601.397 501.336 613.996 499.671 617.306C478.465 659.432 456.45 701.195 433.71 742.515C428.606 751.79 425.116 761.656 419.683 771.076C420.135 768.407 432.454 745.169 431.896 743.13L431.753 742.983C435 734.107 443.692 719.031 447.987 709.91C455.17 694.659 462.389 679.388 469.654 664.177L504.105 591.305C508.495 581.962 513.13 570.402 517.775 561.538C517.904 564.192 517.952 567.139 517.908 569.802C517.531 592.167 519.915 614.382 519.902 636.706C519.899 641.797 519.879 647.213 520.591 652.228C521.977 647.053 523.624 630.461 524.944 623.4L535.512 566.138C537.074 557.279 539.334 546.24 540.292 537.454C549.523 552.814 563.336 572.1 570.964 587.197L572.39 585.443C564.706 567.547 558.871 542.306 552.122 523.468C559.413 529.003 573.055 537.215 581.213 542.211C604.849 556.686 628.566 570.609 651.371 586.472C652.382 585.61 652.613 585.601 652.48 584.308L582.449 520.364C577.605 515.955 572.543 511.898 567.765 507.48C578.434 507.468 590.572 508.6 601.243 509.431C619.578 510.86 640.174 511.239 658.267 513.422C659.248 513.211 663.165 513.062 663.152 513.069L663.167 512.95C663.011 512.812 662.355 512.773 662.245 512.77C661.545 512.753 660.905 512.604 660.272 512.29C659.636 511.975 658.982 511.688 658.31 511.393C656.496 510.435 645.038 508.11 642.362 507.42C614.36 500.201 586.568 491.356 558.353 484.962C562.374 483.341 566.892 481.862 571.049 480.568C604.135 470.262 636.656 457.455 669.837 447.478L672.219 448.496C675.765 447.923 738.168 423.819 739.082 422.919L738.576 422.199Z"/><path fill="#FFD700" d="M738.576 422.199C741.269 421.119 765.747 416.21 767.486 417.107L732.019 454.253C713.455 474.064 695.496 493.627 676.063 512.678C667.869 511.374 658.571 506.422 650.634 503.994C630.288 497.771 609.165 488.349 588.834 482.813C605.501 477.14 621.676 469.997 637.964 463.552C641.718 462.066 671.162 448.432 672.219 448.496C675.765 447.923 738.168 423.819 739.082 422.919L738.576 422.199Z"/><path fill="#FDFEAC" d="M652.48 584.308C656.137 587.456 659.091 589.889 662.2 593.549C659.733 592.057 653.237 588.291 651.371 586.472C652.382 585.61 652.613 585.601 652.48 584.308Z"/><path fill="#FDFEAC" d="M658.31 511.393C663.133 511.967 664.048 512.082 668.56 513.674C664.679 513.956 662.013 514.362 658.267 513.422C659.248 513.211 663.165 513.062 663.152 513.069L663.167 512.95C663.011 512.812 662.355 512.773 662.245 512.77C661.545 512.753 660.905 512.604 660.272 512.29C659.636 511.975 658.982 511.688 658.31 511.393Z"/><path fill="#FDFEAC" d="M572.39 585.443C573.199 588.222 574.976 594.639 570.964 587.197L572.39 585.443Z"/><path fill="#FFF176" d="M572.023 456.225C573.443 456.851 575.48 456.804 576.998 456.478C580.523 455.723 578.519 456.04 581.988 456.517L582.681 456.617C579.318 457.161 575.616 457.61 572.232 457.958C570.182 458.168 569.342 456.988 572.023 456.225Z"/><path fill="#FFF176" d="M439.631 496.795C441.718 495.855 442.945 496.619 440.699 498.501L439.631 496.795Z"/><path fill="#FFD700" d="M383.157 152.546C387.627 161.776 391.505 171.576 395.562 181.034C396.39 182.963 400.096 191.108 400.595 192.683C400.828 195.982 425.214 250.929 428.579 258.062C440.416 283.155 450.985 311.111 462.826 336.092C469.49 328.179 480.543 312.077 486.822 305.906C486.443 312.611 484.374 324.528 483.48 331.695C481.292 349.233 478.998 368.279 475.789 385.672L441.866 315.095C436.773 304.364 431.091 290.18 425.541 279.995C432.799 315.905 437.41 352.91 442.05 389.244C443.633 401.644 446.139 413.828 447.715 425.617C438.044 420.73 428.219 416.058 418.375 411.528C398.838 402.538 379.47 390.158 359.556 382.242C372.926 395.909 387.52 408.232 401.826 420.882C405.958 424.536 409.791 428.508 413.895 432.197C420.089 437.764 427.065 443.036 432.776 449.069C407.994 449.835 383.19 448.58 358.611 445.318C364.662 449.082 375.189 452.69 381.947 455.538C395.474 461.24 409.688 466.531 422.938 472.758C405.359 478.86 387.611 484.063 370.06 490.212C352.551 496.345 334.771 501.795 317.108 507.457C311.71 509.156 305.662 511.616 300.228 512.869C298.319 513.152 297.885 513.221 295.935 513.223C299.727 509.386 314.745 499.152 320.066 494.908C336.502 481.8 353.53 469.197 370.094 456.221C357.629 448.835 338.298 442.884 324.366 435.522C325.454 434.158 326.487 432.685 327.617 431.383L329.385 430.843C343.892 433.82 366.368 435.529 381.29 436.879C384.638 431.721 390.615 423.649 394.833 419.179C388.525 414.889 378.576 406.437 372.337 401.512C356.744 389.243 341.268 376.826 325.909 364.264C318.793 358.399 311.628 351.898 304.451 346.203C304.671 345.93 304.895 345.66 305.124 345.394C307.115 343.089 307.95 338.797 310.08 337.052C311.357 336.264 326.839 309.367 329.364 305.25L371.67 237.673C375.867 231.062 389.155 211.489 391.937 205.383C388.615 189.182 385.477 171.789 381.699 155.773C382.125 154.131 381.895 153.62 383.157 152.546Z"/><path fill="#FCBA1A" d="M391.937 205.383C394.642 210.293 401.675 251.159 403.417 259.714L415.722 321.12C419.674 339.911 424.191 359.236 427.626 378.114C421.91 383.914 416.024 389.773 411.618 396.664C387.984 384.194 364.098 368.795 340.748 355.485C336.207 352.897 312.783 339.424 310.08 337.052C311.357 336.264 326.839 309.367 329.364 305.25L371.67 237.673C375.867 231.062 389.155 211.489 391.937 205.383Z"/><path fill="#FF9F00" d="M601.515 585.267L645.817 607.08C649.152 608.682 666.431 616.556 668.714 618.366C631.456 659.513 594.479 700.914 557.787 742.567L521.012 783.519C516.69 788.38 508.488 797.069 504.803 802.021C504.947 796.435 512.251 774.015 514.097 767.178C521.384 739.7 528.986 712.306 536.9 685.002C540.971 670.485 545.1 653.121 550.12 639.037C553.459 636.2 575.653 612.16 575.84 612.118C588.058 629.542 600.292 650.304 612.127 668.509C610.146 662.893 608.311 654.565 606.746 648.606L597.818 615.077C596.173 608.817 594.525 601.5 592.647 595.438C595.937 592.19 598.179 589.763 600.97 585.978L601.515 585.267Z"/><path fill="#FCBA1A" d="M563.122 595.779C566.699 598.655 574.668 608.386 575.84 612.118C575.653 612.16 553.459 636.2 550.12 639.037C551.398 628.699 559.286 605.616 563.122 595.779Z"/><path fill="#FFF176" d="M608.03 445.057C618.949 443.024 630.101 441.774 640.915 439.72C673.433 433.544 706.195 429.113 738.576 422.199L739.082 422.919C738.168 423.819 675.765 447.923 672.219 448.496L669.837 447.478L672.813 446.516C673.403 445.981 673.926 445.384 674.758 445.313C674.93 445.298 676.595 445.216 676.558 444.802L676.408 444.716L676.208 444.945C675.119 444.294 675.544 444.622 674.43 444.427L673.928 444.336C676.322 443.888 679.154 443.131 681.497 443.241L682.539 442.698L682.995 443.822C683.592 443.82 729.347 426.374 734.147 424.439C732.984 423.89 703.045 429.97 699.31 430.635L615.509 444.749C614.159 444.972 607.631 446.38 607.187 445.707L608.03 445.057Z"/><path fill="#FDFEAC" d="M673.928 444.336C676.322 443.888 679.154 443.131 681.497 443.241C677.215 446.227 678.062 445.511 672.813 446.516C673.403 445.981 673.926 445.384 674.758 445.313C674.93 445.298 676.595 445.216 676.558 444.802L676.408 444.716L676.208 444.945C675.119 444.294 675.544 444.622 674.43 444.427L673.928 444.336Z"/><path fill="#FCBA1A" d="M587.279 578.213C591.769 580.36 597.378 582.582 601.515 585.267L600.97 585.978C598.179 589.763 595.937 592.19 592.647 595.438C590.733 590.827 588.779 583.204 587.279 578.213Z"/><path fill="#FDFEAC" d="M497.697 307.562C497.904 304.062 498.592 300.078 499.378 296.652C500.038 302.357 500.238 313.495 499.563 319.223C499.438 317.926 499.576 306.494 497.697 307.562Z"/><path fill="#FDFEAC" d="M409.802 787.72C410.336 785.93 412.15 780.314 413.184 778.872L414.677 779.396C413.462 782.814 412.215 784.676 411.113 787.561L409.802 787.72Z"/><path fill="#FDFEAC" d="M359.272 501.568C355.684 502.27 352.436 501.66 349.003 502.984C348.443 503.2 346.951 503.898 346.66 502.983C347.002 501.776 351.136 500.524 352.425 500.529C353.019 502.227 357.127 501.441 359.272 501.568Z"/><path fill="#FFF176" d="M411.113 787.561C410.741 788.353 407.986 795.263 407.16 794.838C406.769 793.629 408.861 788.727 409.802 787.72L411.113 787.561Z"/><path fill="#FFFFE1" d="M388.964 452.419C391.502 452.267 393.098 452.013 395.669 452.262L394.99 454.287C393.12 453.807 390.794 453.051 388.964 452.419Z"/><path fill="#FDFEAC" d="M581.127 251.873L582.175 253.267C581.682 254.208 581.196 255.137 580.623 256.032L579.286 255.02C579.86 253.949 580.474 252.899 581.127 251.873Z"/><path fill="#FDFEAC" d="M440.775 345.566C440.646 344.927 439.624 340.11 440.941 340.286L440.726 340.653L441.331 340.778C441.637 341.517 441.801 342.358 441.928 343.142C440.86 343.416 441.064 344.446 440.775 345.566Z"/><path fill="#FFF176" d="M581.127 251.873C584.11 248.234 584.623 249.875 582.175 253.267L581.127 251.873Z"/><path fill="#FDFEAC" d="M382.137 399.03C378.071 395.959 380.297 395.355 382.698 397.605L382.137 399.03Z"/><path fill="#FCBA1A" d="M304.163 346.451L303.772 346.126C293.796 337.712 283.32 329.392 273.252 321.048C271.075 319.244 268.59 317.499 266.764 315.355C266.218 314.714 265.962 313.455 266.999 313.138C281.304 320.991 295.605 329.347 310.08 337.052C307.95 338.797 307.115 343.089 305.124 345.394C304.895 345.66 304.671 345.93 304.451 346.203L304.163 346.451Z"/><path fill="#FF9F00" fill-opacity="0.98823529" d="M381.699 155.773C381.582 155.228 380.847 151.81 380.891 151.485C381.253 148.818 382.801 151.226 383.157 152.546C381.895 153.62 382.125 154.131 381.699 155.773Z"/></svg>