<?xml version="1.0" encoding="utf-8" ?><svg xmlns="http://www.w3.org/2000/svg" xmlns:xlink="http://www.w3.org/1999/xlink" width="1024" height="1024" viewBox="0 0 1024 1024"><path fill="white" d="M733.566 156.045C751.206 155.882 770.94 155.563 788.484 156.152C788.682 165.795 788.874 175.32 788.893 184.964C788.909 193.176 787.92 205.697 788.884 213.556C799.441 215.633 810.238 217.099 820.774 219.244C832.912 221.715 845.073 225.087 856.997 228.47C856.724 238.216 856.723 247.967 856.992 257.713C865.925 259.538 881.366 265.093 889.953 268.42L889.977 849.653C869.374 835.974 830.824 825.688 807.034 820.672C744.215 807.377 679.494 805.682 616.065 815.672C600.435 818.209 580.249 822.111 565.499 827.915C565.524 841.07 562.391 853.204 552.148 862.303C541.261 871.974 527.413 871.832 513.762 871.527C508.286 871.405 502.508 871.72 496.999 871.301C486.683 870.551 477.099 865.697 470.391 857.824C463.324 849.619 459.855 838.915 460.766 828.124C457.463 826.76 453.106 825.434 449.649 824.455C360.913 799.311 216.782 804.521 135.765 849.848C136.354 802.435 135.94 754.017 135.952 706.528L135.977 268.87C142.974 265.651 161.456 259.603 169.075 257.618C169.218 248.074 169.048 238.222 169.092 228.624C180.407 223.868 223.203 215.188 236.406 213.925L236.496 216.045C236.499 217.764 236.402 220.068 236.542 221.706C236.847 222.854 237.289 225.468 237.781 226.243L237.901 226.239C238.733 224.977 236.468 224.027 240.483 222.938C241.008 222.395 245.139 221.25 245.57 222.122C247.091 225.199 251.652 219.266 251.654 219.299C251.315 218.964 250.764 219.008 250.316 218.959C249.379 215.471 250.244 215.97 254.754 214.912C256.462 214.959 259.696 214.75 261.486 214.608C271.152 213.838 282.874 215.369 292.35 214.26C294.287 211.502 293.965 205.558 293.59 202.234C294.014 196.869 292.763 196.882 298.097 194.719C300.282 192.815 301.188 187.514 303.709 189.27C305.268 190.357 305.996 192.494 307.128 193.97C308.975 196.965 311.011 196.299 312.908 198.823C313.998 200.274 316.324 202.94 318.216 203.107C318.362 207.801 318.244 205.029 319.365 206.849C319.149 209.682 318.728 212.396 318.863 215.173C319.155 215.4 319.444 215.632 319.733 215.863C319.978 215.495 320.163 176.578 319.948 173.4L320.485 172.664C328.124 172.015 344.95 172.964 353.352 173.06C353.418 177.471 353.74 184.606 353.566 188.822C353.241 192.727 353.021 213.05 354.197 217.849C354.22 217.941 355.252 218.279 355.188 218.223C359.188 221.787 357.961 222.177 363.531 223.689C363.816 223.506 364.672 223.037 364.74 222.783C364.33 222.341 363.522 222.641 363.064 222.245C362.953 221.374 364.868 222.09 364.696 221.196C364.256 220.938 364.364 221.047 364.102 220.728C364.399 219.305 370.267 213.773 371.189 214.307C373.888 215.873 377.682 214.853 377.802 218.236L378.234 228.752C378.269 229.51 378.213 230.395 378.18 231.155C378.351 231.425 378.454 231.723 378.723 231.856L378.801 231.782C379.42 229.603 379.592 202.183 379.499 198.345C379.495 198.086 379.439 196.736 379.713 196.71C384.797 196.222 392.638 196.811 397.749 197.539C401.494 198.072 407.586 198.067 410.203 199.542C410.556 199.741 410.524 201.578 410.527 201.922C410.229 205.846 410.686 222.75 411.397 226.336C411.638 225.712 411.795 224.985 412.183 224.449C412.814 225.261 412.557 230.638 413.502 228.057C413.357 228.453 413.706 226.877 413.674 226.919C413.768 226.445 413.861 225.971 413.955 225.497C414.778 221.467 413.568 221.987 416.723 221.151C418.662 220.637 419.933 219.889 422.359 220.284C423.831 223.009 422.85 221.294 424.86 221.288C425.266 221.698 425.608 222.599 426.478 222.096C428.989 220.643 429.932 222.815 430.712 222.814C431.439 222.359 432.239 218.972 432.547 218.097L434.328 219.032C446.318 224.545 464.683 239.537 475.801 248.076C476.288 242.758 476.098 235.237 476.091 229.713L475.872 196.372C485.03 206.338 496.558 224.021 504.211 235.657C507.02 240.294 510.295 246.294 513.331 250.566L521.781 236.301C531.246 222.107 539.843 209.322 550.653 196.046C550.516 212.217 549.991 231.038 550.638 247.112C551.606 247.018 552.447 246.905 553.252 246.257C564.06 237.557 576.684 225.358 589.011 218.797C591.214 217.673 596.935 215.651 599.483 214.674C599.954 214.368 600.42 214.057 600.883 213.739C606.118 210.15 609.31 210.977 615.18 211.76C615.607 206.971 615.412 203.024 615.747 198.334C624.995 196.389 637.287 196.79 646.872 196.344C646.75 202.29 646.828 210.483 647.909 216.255C648.018 213.237 648.345 210.089 648.79 207.112L648.751 207.008C648.486 207.977 648.663 220.561 649.262 221.684L649.299 221.693C649.791 221.246 649.454 217.488 649.526 216.499C649.593 215.456 649.811 209.704 650.618 209.257C652.141 208.413 657.974 208.712 659.575 209.063C663.097 209.834 665.325 208.784 668.5 207.966C668.501 211.115 668.617 215.129 668.396 218.209C669.012 217.08 670.332 214.003 670.267 212.76C669.812 204.062 671.197 194.438 670.431 185.816C670.218 182.304 670.272 177.473 670.387 173.971C681.837 173.437 692.585 173.759 703.966 173.494C703.998 175.605 704.097 177.784 704.062 179.879C703.699 184.265 703.603 215.157 704.253 218.326C704.532 218.575 708.295 218.024 708.937 217.538C708.914 217.367 708.891 217.196 708.868 217.025C708.861 216.952 708.793 216.819 708.71 216.788C708.36 216.656 708.04 216.84 707.734 216.958C707.339 217.111 706.888 217.443 706.464 217.448C706.349 217.45 706.201 217.372 706.145 217.285C706.019 217.085 705.986 216.508 705.989 216.302C706.005 215.496 705.981 214.501 705.619 213.751C705.419 213.338 705.3 212.938 705.413 212.45C705.539 211.901 705.667 211.44 705.495 210.862C705.171 209.773 705.232 208.672 705.216 207.521C705.522 206.834 706.219 205.302 707.094 206.668C709.176 209.918 712.816 204.196 714.085 202.67C717.373 203.007 719.152 202.138 722.333 200.964C725.874 202.267 727.351 201.988 730.537 203.019C732.383 203.616 731.775 199.79 731.75 198.427C731.716 201.326 731.454 201.322 732.497 203.843C733.271 202.68 733.11 197.738 733.083 196.102C733.097 194.057 733.306 190.153 733.035 188.338C733.036 187.193 733.015 186.047 732.97 184.903C733.014 184.146 733.05 183.388 733.077 182.631C733.145 174.054 733.03 164.53 733.566 156.045ZM785.782 697.412C785.853 697.159 785.974 696.958 785.893 696.735C785.813 696.761 785.252 696.944 785.116 697.002C785.079 697.267 784.968 697.571 785.081 697.808C785.343 697.801 785.563 697.565 785.782 697.412Z"/><path fill="white" d="M733.566 156.045C751.206 155.882 770.94 155.563 788.484 156.152C788.682 165.795 788.874 175.32 788.893 184.964C788.909 193.176 787.92 205.697 788.884 213.556C799.441 215.633 810.238 217.099 820.774 219.244C832.912 221.715 845.073 225.087 856.997 228.47C856.724 238.216 856.723 247.967 856.992 257.713C857.969 341.826 856.875 426.354 857.169 510.505L857.247 709.042C857.167 738.704 857.659 769.257 857.017 798.841C820.075 779.028 788.236 768.492 746.282 763.732C668.742 754.935 588.342 765.281 523.083 810.275C522.829 793.834 523.121 776.696 523.137 760.205L523.088 674.057L523.04 406.796L523.094 296.465L523.111 260.48C523.111 255.473 523.809 239.801 521.781 236.301C531.246 222.107 539.843 209.322 550.653 196.046C550.516 212.217 549.991 231.038 550.638 247.112C551.606 247.018 552.447 246.905 553.252 246.257C564.06 237.557 576.684 225.358 589.011 218.797C591.214 217.673 596.935 215.651 599.483 214.674C599.954 214.368 600.42 214.057 600.883 213.739C606.118 210.15 609.31 210.977 615.18 211.76C615.607 206.971 615.412 203.024 615.747 198.334C624.995 196.389 637.287 196.79 646.872 196.344C646.75 202.29 646.828 210.483 647.909 216.255C648.018 213.237 648.345 210.089 648.79 207.112L648.751 207.008C648.486 207.977 648.663 220.561 649.262 221.684L649.299 221.693C649.791 221.246 649.454 217.488 649.526 216.499C649.593 215.456 649.811 209.704 650.618 209.257C652.141 208.413 657.974 208.712 659.575 209.063C663.097 209.834 665.325 208.784 668.5 207.966C668.501 211.115 668.617 215.129 668.396 218.209C669.012 217.08 670.332 214.003 670.267 212.76C669.812 204.062 671.197 194.438 670.431 185.816C670.218 182.304 670.272 177.473 670.387 173.971C681.837 173.437 692.585 173.759 703.966 173.494C703.998 175.605 704.097 177.784 704.062 179.879C703.699 184.265 703.603 215.157 704.253 218.326C704.532 218.575 708.295 218.024 708.937 217.538C708.914 217.367 708.891 217.196 708.868 217.025C708.861 216.952 708.793 216.819 708.71 216.788C708.36 216.656 708.04 216.84 707.734 216.958C707.339 217.111 706.888 217.443 706.464 217.448C706.349 217.45 706.201 217.372 706.145 217.285C706.019 217.085 705.986 216.508 705.989 216.302C706.005 215.496 705.981 214.501 705.619 213.751C705.419 213.338 705.3 212.938 705.413 212.45C705.539 211.901 705.667 211.44 705.495 210.862C705.171 209.773 705.232 208.672 705.216 207.521C705.522 206.834 706.219 205.302 707.094 206.668C709.176 209.918 712.816 204.196 714.085 202.67C717.373 203.007 719.152 202.138 722.333 200.964C725.874 202.267 727.351 201.988 730.537 203.019C732.383 203.616 731.775 199.79 731.75 198.427C731.716 201.326 731.454 201.322 732.497 203.843C733.271 202.68 733.11 197.738 733.083 196.102C733.097 194.057 733.306 190.153 733.035 188.338C733.036 187.193 733.015 186.047 732.97 184.903C733.014 184.146 733.05 183.388 733.077 182.631C733.145 174.054 733.03 164.53 733.566 156.045ZM785.782 697.412C785.853 697.159 785.974 696.958 785.893 696.735C785.813 696.761 785.252 696.944 785.116 697.002C785.079 697.267 784.968 697.571 785.081 697.808C785.343 697.801 785.563 697.565 785.782 697.412Z"/><path fill="#6A0DAD" d="M521.781 236.301C531.246 222.107 539.843 209.322 550.653 196.046C550.516 212.217 549.991 231.038 550.638 247.112C549.907 254.244 550.736 269.29 550.559 277.006C550.466 281.028 550.49 297.759 550.913 301.07C550.857 304.278 550.726 307.58 550.916 310.773C550.361 319.696 550.548 330.958 550.519 339.999L550.603 397.533L550.491 453.642C550.477 462.385 550.102 474.592 550.578 483.012C550.473 494.035 550.454 505.058 550.521 516.08C550.516 534.656 549.773 559.393 550.593 577.277C550.495 586.379 550.463 595.482 550.497 604.585L550.497 645.133L550.478 696.033C550.489 710.068 549.934 728.537 550.577 742.261C550.221 748.532 550.498 757.641 550.49 764.13C554.041 760.697 557.744 757.426 561.588 754.325C601.627 721.993 659.803 703.198 710.459 698.634C735.217 696.403 763.799 697.283 788.482 699.899L788.53 656.195C809.082 659.316 820.237 661.068 841.006 666.882C841.095 652.485 841.097 638.087 841.012 623.69C824.922 617.88 805.529 616.031 788.96 612.8C788.651 598.339 788.92 582.879 788.911 568.336C806.536 570.544 823.965 574.105 841.043 578.988L841.042 535.699C821.528 529.773 808.15 528.372 788.622 524.952L788.628 480.97C806.34 481.92 823.923 487.296 841.103 490.879L841.021 447.79C822.676 442.283 807.373 440.197 788.634 437.375L788.697 393.35L789.012 393.099C795.482 392.056 832.671 400.584 840.98 402.963L840.994 359.849C830.87 357.065 820.622 354.752 810.284 352.917C806.645 352.287 791.097 350.027 788.525 349.08L788.603 304.67C808.895 307.285 821.274 309.664 841.076 314.179C841.195 299.926 841.221 285.671 841.154 271.417C821.73 265.962 808.41 264.269 788.916 260.893L788.884 213.556C799.441 215.633 810.238 217.099 820.774 219.244C832.912 221.715 845.073 225.087 856.997 228.47C856.724 238.216 856.723 247.967 856.992 257.713C857.969 341.826 856.875 426.354 857.169 510.505L857.247 709.042C857.167 738.704 857.659 769.257 857.017 798.841C820.075 779.028 788.236 768.492 746.282 763.732C668.742 754.935 588.342 765.281 523.083 810.275C522.829 793.834 523.121 776.696 523.137 760.205L523.088 674.057L523.04 406.796L523.094 296.465L523.111 260.48C523.111 255.473 523.809 239.801 521.781 236.301Z"/><path fill="#D7B8F3" d="M733.035 522.386C750.899 522.429 771.004 522.1 788.622 524.952C808.15 528.372 821.528 529.773 841.042 535.699L841.043 578.988C823.965 574.105 806.536 570.544 788.911 568.336C788.92 582.879 788.651 598.339 788.96 612.8C805.529 616.031 824.922 617.88 841.012 623.69C841.097 638.087 841.095 652.485 841.006 666.882C820.237 661.068 809.082 659.316 788.53 656.195C778.302 653.982 744.912 653.664 733.485 653.537C733.544 639.047 733.502 624.556 733.36 610.067C751.786 610.485 770.068 610.37 788.39 612.662L788.369 568.622C771.09 566.017 750.719 566.259 733.046 565.956L733.035 522.386Z"/><path fill="#D7B8F3" d="M733.566 156.045C751.206 155.882 770.94 155.563 788.484 156.152C788.682 165.795 788.874 175.32 788.893 184.964C788.909 193.176 787.92 205.697 788.884 213.556L788.916 260.893C808.41 264.269 821.73 265.962 841.154 271.417C841.221 285.671 841.195 299.926 841.076 314.179C821.274 309.664 808.895 307.285 788.603 304.67C768.884 302.697 752.89 302.45 733.252 302.483C732.521 289.601 733.031 271.218 733 258.062C753.46 258.598 767.685 258.98 788.357 260.763L788.351 214.221C782.955 214.688 772.93 214.255 767.19 214.295C755.962 214.208 744.719 214.545 733.492 214.314C729.429 214.23 723.195 220.662 719.594 216.927C719.872 215.258 719.506 215.988 720.935 214.777C722.611 214.713 721.825 214.534 723.341 215.461C722.638 216.307 721.675 216.336 720.394 216.729L720.784 216.993C721.371 216.946 722.08 216.888 722.909 216.821C725.32 214.555 728.82 211.155 731.077 208.947C730.885 206.739 731.351 205.628 732.497 203.843C733.271 202.68 733.11 197.738 733.083 196.102C733.097 194.057 733.306 190.153 733.035 188.338C733.036 187.193 733.015 186.047 732.97 184.903C733.014 184.146 733.05 183.388 733.077 182.631C733.145 174.054 733.03 164.53 733.566 156.045Z"/><path fill="#D7B8F3" d="M732.938 434.526C751.544 434.333 770.145 435.284 788.634 437.375C807.373 440.197 822.676 442.283 841.021 447.79L841.103 490.879C823.923 487.296 806.34 481.92 788.628 480.97C781.254 480.423 773.942 479.422 766.463 478.992C755.203 478.345 744.193 478.405 732.927 478.407C733.047 463.78 733.051 449.153 732.938 434.526Z"/><path fill="#D7B8F3" d="M733.037 346.521C749.344 346.464 772.532 346.296 788.525 349.08C791.097 350.027 806.645 352.287 810.284 352.917C820.622 354.752 830.87 357.065 840.994 359.849L840.98 402.963C832.671 400.584 795.482 392.056 789.012 393.099L788.697 393.35C784.914 390.464 740.842 390.36 732.947 390.126L733.037 346.521Z"/><path fill="#D7B8F3" d="M550.578 483.012C550.102 474.592 550.477 462.385 550.491 453.642L550.603 397.533L550.519 339.999C550.548 330.958 550.361 319.696 550.916 310.773C551.634 319.183 551.137 333.267 551.054 342.002C562.6 331.523 575.183 319.733 588.965 312.274C588.63 326.452 588.459 340.634 588.454 354.817C577.001 362.662 559.797 371.889 551.158 383.173L551.06 433.156C563.842 422.2 576.09 411.326 591.583 403.83L591.644 434.427C579.44 441.903 568.281 449.151 557.4 458.473C555.502 460.099 553.054 462.081 551.034 463.459C551.009 468.615 551.198 478.11 550.578 483.012Z"/><path fill="#D7B8F3" d="M670.387 173.971C681.837 173.437 692.585 173.759 703.966 173.494C703.998 175.605 704.097 177.784 704.062 179.879C703.699 184.265 703.603 215.157 704.253 218.326C704.532 218.575 708.295 218.024 708.937 217.538C709.337 217.213 710.764 215.794 711.061 216.256C711.813 217.53 714.969 216.277 713.182 218.37C711.332 220.538 710.657 219.468 711.182 221.475C709.532 222.554 705.923 220.948 704.253 220.774C703.45 222.811 697.356 221.684 695.034 221.831C686.51 222.37 676.979 221.232 668.708 222.941C668.337 223.018 667.066 221.8 666.928 221.315C667.201 220.125 668.765 221.518 668.396 218.209C669.012 217.08 670.332 214.003 670.267 212.76C669.812 204.062 671.197 194.438 670.431 185.816C670.218 182.304 670.272 177.473 670.387 173.971Z"/><path fill="#D7B8F3" d="M550.497 604.585C558.449 594.901 577.6 578.836 588.922 573.3C588.79 586.976 588.203 603.876 588.82 617.293C584.536 619.853 574.767 625.39 571.227 628.391C568.169 630.983 551.546 643.358 550.497 645.133L550.497 604.585Z"/><path fill="#D7B8F3" d="M550.638 247.112C551.606 247.018 552.447 246.905 553.252 246.257C564.06 237.557 576.684 225.358 589.011 218.797C588.621 233.294 588.493 247.797 588.626 262.299C583.604 266.084 577.397 268.917 572.583 272.427C565.405 277.661 558.382 283.43 551.187 288.712C551.184 291.714 551.349 298.383 550.913 301.07C550.49 297.759 550.466 281.028 550.559 277.006C550.736 269.29 549.907 254.244 550.638 247.112Z"/><path fill="#D7B8F3" d="M615.747 198.334C624.995 196.389 637.287 196.79 646.872 196.344C646.75 202.29 646.828 210.483 647.909 216.255C648.024 217.508 648.173 226.754 647.786 227.348L647.724 227.354C647.457 226.389 647.503 224.663 647.263 223.919C647.002 225.432 647.006 237.485 647.009 239.366C640.564 240.021 634.14 240.871 627.746 241.913C623.652 242.553 619.437 243.318 615.371 244.124C615.356 241.123 615.408 233.655 614.814 231.008C613.635 225.757 614.567 222.412 614.125 216.767C612.069 215.538 610.553 214.426 608.016 214.941C605.527 215.446 602.195 214.749 599.483 214.674C599.954 214.368 600.42 214.057 600.883 213.739C606.118 210.15 609.31 210.977 615.18 211.76C615.607 206.971 615.412 203.024 615.747 198.334Z"/><path fill="#D7B8F3" d="M550.521 516.08C562.532 505.332 574.592 493.745 588.866 485.647C588.709 498.472 588.634 511.298 588.641 524.124C578.993 529.898 558.278 543.926 551.099 552.016C551.05 556.301 551.28 574.505 550.593 577.277C549.773 559.393 550.516 534.656 550.521 516.08Z"/><path fill="#D7B8F3" d="M550.478 696.033C558.021 689.145 582.788 670.346 591.481 666.559C591.485 674.908 591.395 683.439 591.511 691.771C578.533 701.622 563.349 709.179 551.033 721.517C551.058 726.349 551.337 737.85 550.577 742.261C549.934 728.537 550.489 710.068 550.478 696.033Z"/><path fill="#D7B8F3" d="M702.987 439.249L703.275 439.524C703.788 441.776 703.517 451.28 703.506 454.254L703.46 484.024C695.237 484.863 689.406 485.12 680.904 486.584C657.516 490.754 635.362 500.119 616.074 513.988C614.997 512.877 615.56 473.113 615.581 468.45C642.936 449.317 669.812 441.021 702.987 439.249Z"/><path fill="#D7B8F3" d="M671.885 349.756L703.94 349.513L703.474 395.127C693.471 394.687 681.817 394.997 671.62 394.919C671.631 389.908 671.144 351.51 671.885 349.756Z"/><path fill="#D7B8F3" d="M671.564 263.497C682.183 263.368 693.26 263.501 703.892 263.542C703.556 278.648 703.43 293.757 703.513 308.865C701.204 309.112 696.879 308.864 694.377 308.866L671.59 308.795L671.564 263.497Z"/><path fill="#D7B8F3" d="M671.616 527.866C681.64 527.661 693.554 527.997 703.744 528.096C703.544 543.204 703.846 558.17 703.633 573.188L671.522 573.137C671.472 558.046 671.504 542.956 671.616 527.866Z"/><path fill="#D7B8F3" d="M681.507 615.749C688.845 615.727 696.183 615.765 703.52 615.861L703.496 660.693C700.108 660.782 697.347 660.83 693.941 660.777C686.475 660.564 679.005 660.496 671.536 660.571C671.485 645.639 671.589 630.707 671.847 615.777C675.067 615.81 678.287 615.8 681.507 615.749Z"/><path fill="#D7B8F3" d="M615.12 552.518C625.701 552.643 636.406 552.528 646.996 552.518C647.089 566.092 647.114 579.668 647.07 593.243C645.849 593.648 644.629 593.929 643.367 594.168C634.59 595.819 623.873 597.727 615.062 598.741C615.226 583.334 615.245 567.926 615.12 552.518Z"/><path fill="#D7B8F3" d="M640.452 286.8C642.688 286.547 644.781 286.446 647.009 286.25L646.778 329.891C638.003 331.564 629.01 332.625 620.125 334.306C618.565 334.719 616.951 334.983 615.363 335.268C615.605 320.318 615.329 305.13 615.473 290.118C623.255 289.181 632.785 288.098 640.452 286.8Z"/><path fill="#D7B8F3" d="M644.299 376.147C644.351 376.137 646.836 375.578 646.848 376.118C647.083 386.285 647.025 396.571 646.982 406.761C645.117 407.078 643.339 407.501 641.494 407.877L638.993 408.409L636.994 408.835C630.436 410.2 623.697 412.16 617.165 413.803C617.053 413.808 615.628 413.982 615.597 413.682C614.576 403.79 615.718 393.255 615.197 383.205C619.715 381.803 625.428 380.181 630.008 379.116L630.993 378.897C635.405 377.873 639.827 376.878 644.299 376.147Z"/><path fill="#D7B8F3" d="M644.423 639.61C645.103 639.49 646.471 639.214 646.503 639.585C647.003 645.268 646.86 666.325 646.97 670.727C637.068 673.133 627.579 674.891 617.7 677.884C617.614 677.894 615.634 678.212 615.609 677.816C615.004 667.833 615.414 657.383 615.282 647.303C622.981 644.878 636.484 641.311 644.423 639.61Z"/><path fill="#FEFEFE" fill-opacity="0.94509804" d="M785.116 697.002C785.252 696.944 785.813 696.761 785.893 696.735C785.974 696.958 785.853 697.159 785.782 697.412C785.563 697.565 785.343 697.801 785.081 697.808C784.968 697.571 785.079 697.267 785.116 697.002Z"/><path fill="#550992" d="M504.211 235.657C507.02 240.294 510.295 246.294 513.331 250.566L521.781 236.301C523.809 239.801 523.111 255.473 523.111 260.48L523.094 296.465L523.04 406.796L523.088 674.057L523.137 760.205C523.121 776.696 522.829 793.834 523.083 810.275C588.342 765.281 668.742 754.935 746.282 763.732C788.236 768.492 820.075 779.028 857.017 798.841C857.659 769.257 857.167 738.704 857.247 709.042L857.169 510.505C856.875 426.354 857.969 341.826 856.992 257.713C865.925 259.538 881.366 265.093 889.953 268.42L889.977 849.653C869.374 835.974 830.824 825.688 807.034 820.672C744.215 807.377 679.494 805.682 616.065 815.672C600.435 818.209 580.249 822.111 565.499 827.915C565.524 841.07 562.391 853.204 552.148 862.303C541.261 871.974 527.413 871.832 513.762 871.527C508.286 871.405 502.508 871.72 496.999 871.301C486.683 870.551 477.099 865.697 470.391 857.824C463.324 849.619 459.855 838.915 460.766 828.124C457.463 826.76 453.106 825.434 449.649 824.455C360.913 799.311 216.782 804.521 135.765 849.848C136.354 802.435 135.94 754.017 135.952 706.528L135.977 268.87C142.974 265.651 161.456 259.603 169.075 257.618C168.325 285.276 168.913 315.648 168.906 343.465L168.911 506.569L168.929 697.185C168.922 730.495 168.338 765.358 168.973 798.503C196.979 783.01 227.327 772.194 258.819 766.482C339.068 752.455 434.933 762.574 502.966 810.361C503.802 794.57 503.362 772.991 503.388 756.913L503.452 660.712L503.458 374.064L503.369 279.988C503.367 271.469 502.845 242.691 504.211 235.657Z"/><path fill="#6A0DAD" d="M475.872 196.372C485.03 206.338 496.558 224.021 504.211 235.657C502.845 242.691 503.367 271.469 503.369 279.988L503.458 374.064L503.452 660.712L503.388 756.913C503.362 772.991 503.802 794.57 502.966 810.361C434.933 762.574 339.068 752.455 258.819 766.482C227.327 772.194 196.979 783.01 168.973 798.503C168.338 765.358 168.922 730.495 168.929 697.185L168.911 506.569L168.906 343.465C168.913 315.648 168.325 285.276 169.075 257.618C169.218 248.074 169.048 238.222 169.092 228.624C180.407 223.868 223.203 215.188 236.406 213.925L236.496 216.045C236.499 217.764 236.402 220.068 236.542 221.706L236.442 262.074C217.741 265.107 203.103 267.744 184.862 272.948C184.76 287.118 184.431 301.994 184.661 316.107C203.463 311.496 217.176 308.324 236.504 305.21C236.494 318.336 236.257 332.303 236.592 345.36C236.543 346.845 236.664 348.606 236.032 349.876C218.301 352.946 201.836 356.104 184.576 361.152C184.488 375.538 184.505 389.924 184.627 404.309C202.776 399.545 217.687 395.736 236.481 393.182C236.438 407.391 236.663 422.526 236.297 436.655L235.887 438.202C229.43 439.765 221.686 440.644 214.992 441.886C204.715 443.809 194.554 446.302 184.555 449.354C184.573 463.282 184.333 478.108 184.677 491.961C199.485 488.555 214.045 484.832 229.091 482.547C231.402 482.196 234.269 481.744 236.504 481.153L236.494 525.799C218.976 528.479 201.642 532.249 184.593 537.086C184.576 551.425 184.411 566.021 184.554 580.337C198.972 576.378 213.109 572.679 227.907 570.39C230.454 569.996 234.066 569.501 236.5 568.802L236.482 613.506C215.899 616.611 204.434 619.601 184.507 624.371C184.524 638.696 184.322 653.615 184.593 667.888C205.651 661.729 214.693 659.965 236.386 656.329L236.56 699.708C250.438 698.594 263.635 697.518 277.67 697.261C345.183 696.022 414.373 715.143 468.112 756.872C469.547 757.987 474.16 762.415 475.519 761.965L475.565 761.255C476.055 756.788 475.87 748.005 475.878 743.145L475.851 709.789L475.954 601.607C476.045 585.827 476.042 570.047 475.946 554.268C476.577 512.687 474.952 469.647 475.964 428.219L475.896 404.281C476.194 397.07 475.95 388.307 475.941 380.998L475.889 335.717C476.519 322.135 476.02 304.203 476.026 290.363L476.121 262.545C476.128 259.292 476.305 250.891 475.801 248.076C476.288 242.758 476.098 235.237 476.091 229.713L475.872 196.372Z"/><path fill="#D7B8F3" d="M236.442 262.074C248.653 258.812 279.813 258.115 292.577 258.128L292.507 302.395C270.957 302.333 257.942 303.028 236.504 305.21C217.176 308.324 203.463 311.496 184.661 316.107C184.431 301.994 184.76 287.118 184.862 272.948C203.103 267.744 217.741 265.107 236.442 262.074Z"/><path fill="#D7B8F3" d="M236.592 345.36C236.756 347.153 236.586 348.411 237.493 349.731C244.195 349.017 250.202 347.983 256.977 347.426C269.048 346.434 280.504 346.516 292.604 346.499L292.528 390.161C270.811 390.564 258.161 390.734 236.481 393.182C217.687 395.736 202.776 399.545 184.627 404.309C184.505 389.924 184.488 375.538 184.576 361.152C201.836 356.104 218.301 352.946 236.032 349.876C236.664 348.606 236.543 346.845 236.592 345.36Z"/><path fill="#D7B8F3" d="M236.494 525.799C257.749 522.706 270.805 522.145 292.502 522.058C292.483 535.151 292.981 553.179 292.285 565.998C281.789 566.296 271.247 566.223 260.812 566.607C252.93 566.898 244.411 568.203 236.5 568.802C234.066 569.501 230.454 569.996 227.907 570.39C213.109 572.679 198.972 576.378 184.554 580.337C184.411 566.021 184.576 551.425 184.593 537.086C201.642 532.249 218.976 528.479 236.494 525.799Z"/><path fill="#D7B8F3" d="M236.297 436.655L236.842 437.894C238.074 437.963 252.861 436.118 255.704 435.881C268.085 434.922 280.499 434.438 292.917 434.431C291.861 446.135 292.595 466.1 292.49 478.458C275.206 478.502 253.604 478.593 236.504 481.153C234.269 481.744 231.402 482.196 229.091 482.547C214.045 484.832 199.485 488.555 184.677 491.961C184.333 478.108 184.573 463.282 184.555 449.354C194.554 446.302 204.715 443.809 214.992 441.886C221.686 440.644 229.43 439.765 235.887 438.202L236.297 436.655Z"/><path fill="#D7B8F3" d="M236.482 613.506C258.204 610.387 270.401 610.451 292.643 610.069L292.511 653.471C284.106 653.482 240.191 653.606 236.386 656.329C214.693 659.965 205.651 661.729 184.593 667.888C184.322 653.615 184.524 638.696 184.507 624.371C204.434 619.601 215.899 616.611 236.482 613.506Z"/><path fill="#D7B8F3" d="M434.225 573.218C441.344 576.62 447.844 581.337 454.342 585.467C458.494 588.105 473.812 601.375 475.954 601.607L475.851 709.789L475.878 743.145C475.87 748.005 476.055 756.788 475.565 761.255C475.137 757.637 475.314 750.808 475.317 746.995L475.354 722.077C463.023 709.631 447.967 701.416 432.967 692.785L432.998 664.672C442.393 668.288 468.398 685.878 475.403 693.107L475.362 645.05C468.925 638.605 456.504 630.285 448.701 625.256C444.125 622.307 438.678 619.59 434.582 616.056C433.906 602.454 434.152 586.901 434.225 573.218Z"/><path fill="#D7B8F3" d="M432.068 403.161C443.554 409.234 454.719 415.488 464.822 423.725C467.942 426.269 471.408 428.774 474.681 431.113L475.251 430.903L475.964 428.219C474.952 469.647 476.577 512.687 475.946 554.268C475.918 554.083 475.587 552.111 475.587 552.111C468.839 541.971 443.151 527.555 434.522 522.591C433.989 510.667 434.198 496.893 434.318 484.923C447.064 491.821 462.486 501.992 473.175 512.082C474.074 512.931 473.679 513.084 475.095 513.629C475.641 510.888 475.375 500.689 475.372 497.349L475.352 463.136C466.695 454.3 443.288 439.644 432.229 433.357C431.775 424.846 432.141 412.144 432.068 403.161Z"/><path fill="#D7B8F3" d="M432.309 311.743C444.901 317.424 464.149 332.054 475.138 340.475C475.377 338.887 475.627 337.301 475.889 335.717L475.941 380.998C475.95 388.307 476.194 397.07 475.896 404.281C475.089 401.249 475.378 386.709 475.396 382.586C464.445 371.515 445.706 360.962 432.43 353.113C431.788 341.328 432.336 323.963 432.309 311.743Z"/><path fill="#D7B8F3" d="M434.328 219.032C446.318 224.545 464.683 239.537 475.801 248.076C476.305 250.891 476.128 259.292 476.121 262.545L476.026 290.363C474.233 289.078 471.752 286.611 469.997 285.082C458.956 275.471 447.572 268.511 434.497 261.876L434.328 219.032Z"/><path fill="#D7B8F3" d="M319.948 173.4L320.485 172.664C328.124 172.015 344.95 172.964 353.352 173.06C353.418 177.471 353.74 184.606 353.566 188.822C353.241 192.727 353.021 213.05 354.197 217.849C354.22 217.941 355.252 218.279 355.188 218.223C359.188 221.787 357.961 222.177 363.531 223.689L364.112 224.15L363.765 224.647L361.362 224.854L361.556 225.024C356.807 225.11 355.426 223.296 353.494 219.162L353.084 218.263C345.453 217.169 329.883 219.676 321.385 218.417C319.495 218.137 319.362 219.894 316.725 219.77C316.716 218.019 318.335 217.073 318.863 215.173C319.155 215.4 319.444 215.632 319.733 215.863C319.978 215.495 320.163 176.578 319.948 173.4Z"/><path fill="#D7B8F3" d="M379.499 198.345C379.495 198.086 379.439 196.736 379.713 196.71C384.797 196.222 392.638 196.811 397.749 197.539C401.494 198.072 407.586 198.067 410.203 199.542C410.556 199.741 410.524 201.578 410.527 201.922C410.229 205.846 410.686 222.75 411.397 226.336C411.609 229.268 411.704 229.288 410.978 231.749C410.507 233.345 410.569 239.047 410.533 240.97L408.991 240.694C408.068 240.538 405.8 240.252 405.002 239.986C400.443 238.469 396.153 238.691 391.547 237.931C387.984 237.343 384.553 236.941 381.008 236.155C378.585 235.618 379.558 234.397 377.722 234.854C374.127 234.939 376.193 233.54 376.898 232.374C376.973 232.251 376.324 232.192 376.128 231.761C376.45 231.398 377.654 231.272 378.18 231.155C378.351 231.425 378.454 231.723 378.723 231.856L378.801 231.782C379.42 229.603 379.592 202.183 379.499 198.345Z"/><path fill="#D7B8F3" d="M328.81 263.746C335.958 263.389 346.102 263.664 353.396 263.68L353.318 309.392C351.054 309.356 348.789 309.33 346.525 309.317C337.636 309.108 329.762 309.248 320.963 309.215C321.045 294.09 321.016 278.965 320.876 263.841L328.81 263.746Z"/><path fill="#D7B8F3" d="M321.084 439.239C331.473 439.24 343.003 438.907 353.28 439.221C353.145 454.029 353.498 469.235 353.235 483.875C351.698 484.908 324.95 484.396 320.918 484.315C321.078 469.853 320.561 453.342 321.084 439.239Z"/><path fill="#D7B8F3" d="M321.029 349.565C331.835 349.86 342.644 350.005 353.454 349.999L353.118 395.059C342.52 394.967 331.5 395.279 321.042 395.122C321.06 380.093 320.838 364.508 321.029 349.565Z"/><path fill="#D7B8F3" d="M321.039 527.975C331.743 528.06 342.449 528.072 353.153 528.01C352.921 543.052 353.195 558.051 353.074 573.073C342.411 572.984 331.68 573.222 321.021 573.097L321.039 527.975Z"/><path fill="#D7B8F3" d="M321.19 615.494C331.788 615.591 342.468 615.415 353.048 615.63C352.964 625.813 352.945 635.997 352.992 646.18C352.999 649.289 353.231 658.349 352.802 660.935L321.213 660.954C321.75 647.413 321.44 629.077 321.19 615.494Z"/><path fill="#D7B8F3" d="M378.513 284.458C389.628 284.86 399.744 286.68 410.608 287.653C410.33 302.469 410.819 317.405 410.504 332.158C407.506 331.446 404.502 330.753 401.492 330.089L396.993 329.083C394.417 328.54 391.834 328.033 389.244 327.562C385.635 326.916 382.074 326.491 378.481 325.873C378.317 312.069 378.327 298.262 378.513 284.458Z"/><path fill="#D7B8F3" d="M378.578 549.959C389.803 550.17 399.432 550.535 410.694 551.637C410.475 566.356 410.773 581.079 410.569 595.803C406.925 595.014 403.397 594.322 399.743 593.59L394.744 592.562C389.287 591.482 384.033 590.657 378.537 589.851L378.578 549.959Z"/><path fill="#D7B8F3" d="M378.984 461.481C389.991 461.666 399.888 463.242 410.635 463.647C410.472 478.331 410.981 493.547 410.677 508.083C410.109 507.905 409.573 507.727 408.992 507.587L406.992 507.105L404.993 506.637C397.268 504.848 391.247 503.407 383.247 502.532C381.626 502.355 380.614 502.109 379.041 501.776C378.843 488.386 379.251 474.875 378.984 461.481Z"/><path fill="#D7B8F3" d="M378.551 639.313C387.267 640.359 396.362 642.745 405.005 644.421L407.255 644.857C408.507 645.103 409.454 645.328 410.693 645.63C410.313 655.888 410.517 666.442 410.452 676.745C399.991 675.251 389.458 671.329 378.508 670.312L378.551 639.313Z"/><path fill="#D7B8F3" d="M379.004 376.364C389.394 377.266 400.545 379.964 410.945 381.719L410.792 414.004C404.836 413.231 394.928 409.519 388.242 408.094L385.994 407.615C383.712 407.144 381.458 406.765 379.171 406.332C378.772 397.173 378.924 385.594 379.004 376.364Z"/><path fill="#D7B8F3" d="M236.406 213.925C236.956 204.661 235.446 161.074 237.151 156.296C244.18 154.561 283.397 155.769 292.165 156.173C292.499 160.022 292.48 164.469 292.555 168.377C292.357 171.914 292.748 201.225 293.59 202.234C293.965 205.558 294.287 211.502 292.35 214.26C282.874 215.369 271.152 213.838 261.486 214.608C259.696 214.75 256.462 214.959 254.754 214.912C250.84 214.446 241.938 213.159 238.129 214.596C238.346 214.514 236.64 215.937 236.496 216.045L236.406 213.925Z"/><path fill="#FEFEFE" fill-opacity="0.56078434" d="M706.093 182.707C707.762 182.804 706.983 184.066 708.268 184.663C709.219 185.105 710.528 184.433 711.277 184.412C712.722 184.373 713.585 183.765 714.99 183.702C715.324 183.628 715.658 183.555 715.992 183.481C716.051 183.303 716.675 183.476 716.73 183.469C718.331 183.262 719.62 183.17 721.291 183.198C724.19 183.246 725.99 186.466 728.979 185.654C729.271 185.558 729.563 185.462 729.855 185.367C730.457 185.152 731.011 184.988 731.64 184.94C731.912 185.242 732.844 187.819 733.035 188.338C733.306 190.153 733.097 194.057 733.083 196.102C732.943 195.697 731.781 192.612 731.755 192.262L731.766 192.299L730.269 193.952C729.894 194.412 728.728 196.055 728.078 196.273C727.391 196.504 727.636 195.154 727.352 194.779C727.061 194.666 725.538 194.766 725.149 194.804L725.139 194.827C725.659 195.029 726.179 195.231 726.698 195.433C725.273 197.27 717.744 190.026 714.288 193.671C714.477 194.226 715.506 194.51 714.982 195.216C714.722 195.316 714.238 194.963 713.779 194.869L713.797 194.851C713.564 196.555 714.499 197.032 712.736 198.469C712.512 198.652 709.675 201.76 710.605 202.242C712.01 202.968 712.118 201.671 714.085 202.67C712.816 204.196 709.176 209.918 707.094 206.668C706.219 205.302 705.522 206.834 705.216 207.521C704.304 206.959 704.091 189.938 704.498 188.204C705.228 186.326 705.663 184.682 706.093 182.707Z"/><path fill="#FEFEFE" fill-opacity="0.72941178" d="M669.872 198.548L669.859 198.791C670.065 194.442 669.902 190.092 670.431 185.816C671.197 194.438 669.812 204.062 670.267 212.76C670.332 214.003 669.012 217.08 668.396 218.209C668.617 215.129 668.501 211.115 668.5 207.966C665.325 208.784 663.097 209.834 659.575 209.063C657.974 208.712 652.141 208.413 650.618 209.257C649.811 209.704 649.593 215.456 649.526 216.499C649.454 217.488 649.791 221.246 649.299 221.693L649.262 221.684C648.663 220.561 648.486 207.977 648.751 207.008L648.79 207.112C648.345 210.089 648.018 213.237 647.909 216.255C646.828 210.483 646.75 202.29 646.872 196.344C647.255 197.218 647.287 198.072 647.888 198.498C648.584 198.308 648.697 197.212 650.209 198.1C652.162 199.175 654.474 198.459 656.751 199.014C661.782 200.24 665.08 199.507 669.872 198.548Z"/><path fill="#FEFEFE" fill-opacity="0.38039216" d="M293.89 174.723C300.35 174.685 306.956 174.204 313.399 174.258C314.363 174.811 318.235 177.737 317.877 176.248C317.738 175.667 318.334 175.381 318.797 175.191C318.94 177.205 319.13 179.22 319.475 181.21C319.889 183.39 319.334 190.799 319.459 193.972L317.665 193.418C317.723 189.703 316.53 191.345 314.35 188.284C313.655 187.307 313.07 186.014 312.421 185.05L311.889 184.268C311.735 184.028 311.582 183.789 311.428 183.55L310.432 182.049C308.132 178.61 301.867 178.788 299.323 181.702C295.947 185.57 295.74 179.376 294.636 184.207L294.72 184.137L294.681 184.208L294.635 184.219C294.6 184.186 293.926 175.424 293.89 174.723Z"/><path fill="#FEFEFE" fill-opacity="0.63137257" d="M298.097 194.719C297.322 189.13 297.015 188.801 300.586 184.242C303.187 180.921 310.655 181.416 311.736 186.011C311.916 186.776 313.234 188.367 313.236 188.416C313.21 188.432 313.183 188.447 313.157 188.462C312.967 188.525 312.777 188.588 312.588 188.651C312.5 189.195 313.155 189.39 313.247 189.872C313.111 189.949 312.537 190.23 312.406 190.292C313.336 192.011 315.507 193.976 317.665 193.418L319.459 193.972C319.577 195.144 319.747 200.671 319.247 201.523C318.994 201.106 318.973 200.341 318.662 200.013L318.604 200.025L318.736 200.149L318.487 200.501C318.41 201.451 318.334 202.159 318.216 203.107C316.324 202.94 313.998 200.274 312.908 198.823C311.011 196.299 308.975 196.965 307.128 193.97C305.996 192.494 305.268 190.357 303.709 189.27C301.188 187.514 300.282 192.815 298.097 194.719Z"/><path fill="#FEFEFE" fill-opacity="0.81176472" d="M410.527 201.922C410.951 204.116 411.068 211.037 411.454 211.636C412.093 211.881 412.529 211.188 412.982 211.594C415.844 214.156 421.68 213.136 425.686 213.341C428.333 215.407 429.682 216.398 432.547 218.097C432.239 218.972 431.439 222.359 430.712 222.814C429.932 222.815 428.989 220.643 426.478 222.096C425.608 222.599 425.266 221.698 424.86 221.288C422.85 221.294 423.831 223.009 422.359 220.284C419.933 219.889 418.662 220.637 416.723 221.151C413.568 221.987 414.778 221.467 413.955 225.497C413.861 225.971 413.768 226.445 413.674 226.919C413.706 226.877 413.357 228.453 413.502 228.057C412.557 230.638 412.814 225.261 412.183 224.449C411.795 224.985 411.638 225.712 411.397 226.336C410.686 222.75 410.229 205.846 410.527 201.922Z"/><path fill="#FEFEFE" fill-opacity="0.63137257" d="M731.766 192.299L731.755 192.262C731.781 192.612 732.943 195.697 733.083 196.102C733.11 197.738 733.271 202.68 732.497 203.843C731.454 201.322 731.716 201.326 731.75 198.427C731.775 199.79 732.383 203.616 730.537 203.019C727.351 201.988 725.874 202.267 722.333 200.964C719.152 202.138 717.373 203.007 714.085 202.67C712.118 201.671 712.01 202.968 710.605 202.242C709.675 201.76 712.512 198.652 712.736 198.469C714.499 197.032 713.564 196.555 713.797 194.851L713.779 194.869C714.238 194.963 714.722 195.316 714.982 195.216C715.506 194.51 714.477 194.226 714.288 193.671C717.744 190.026 725.273 197.27 726.698 195.433C726.179 195.231 725.659 195.029 725.139 194.827L725.149 194.804C725.538 194.766 727.061 194.666 727.352 194.779C727.636 195.154 727.391 196.504 728.078 196.273C728.728 196.055 729.894 194.412 730.269 193.952L731.766 192.299Z"/><path fill="#FEFEFE" fill-opacity="0.4509804" d="M370.7 202.533C377.466 202.577 377.497 201.039 378.973 206.163C379.168 208.731 378.853 210.689 378.807 213.18L378.803 213.34L378.817 213.334L378.398 212.9C378.141 210.465 372.841 210.077 370.361 209.489L369.23 210.456C367.493 211.971 361.144 217.394 358.5 216.479C354.861 215.219 354.41 216.9 353.803 214.008C355.24 211.542 354.87 211.459 357.495 211.86C358.221 211.97 359.394 211.119 359.781 210.585C361.422 208.326 364.051 207.759 366.225 206.223C367.248 205.485 368.071 204.419 369.288 203.544L370.7 202.533Z"/><path fill="#FEFEFE" fill-opacity="0.70588237" d="M353.566 188.822C354.267 194.219 353.925 202.561 353.99 208.207C353.787 209.975 353.931 212.039 353.803 214.008C354.41 216.9 354.861 215.219 358.5 216.479C361.144 217.394 367.493 211.971 369.23 210.456L370.361 209.489C372.841 210.077 378.141 210.465 378.398 212.9L378.817 213.334L378.803 213.34L378.807 213.18C378.853 210.689 379.168 208.731 378.973 206.163C378.963 204.264 378.993 202.4 379.007 200.504L379.499 198.345C379.592 202.183 379.42 229.603 378.801 231.782L378.723 231.856C378.454 231.723 378.351 231.425 378.18 231.155C378.213 230.395 378.269 229.51 378.234 228.752L377.802 218.236C377.682 214.853 373.888 215.873 371.189 214.307C370.267 213.773 364.399 219.305 364.102 220.728C364.364 221.047 364.256 220.938 364.696 221.196C364.868 222.09 362.953 221.374 363.064 222.245C363.522 222.641 364.33 222.341 364.74 222.783C364.672 223.037 363.816 223.506 363.531 223.689C357.961 222.177 359.188 221.787 355.188 218.223C355.252 218.279 354.22 217.941 354.197 217.849C353.021 213.05 353.241 192.727 353.566 188.822Z"/><path fill="#FEFEFE" fill-opacity="0.57254905" d="M292.555 168.377C292.845 170.143 292.917 171.063 293.014 172.85C293.042 173.961 293.037 177.76 293.353 178.503L293.294 178.59L293.368 178.645C293.417 178.614 293.465 178.582 293.513 178.55L293.454 178.506L293.394 177.962L293.73 177.808C293.826 176.815 293.792 175.772 293.89 174.723C293.926 175.424 294.6 184.186 294.635 184.219L294.681 184.208L294.72 184.137L294.636 184.207C295.74 179.376 295.947 185.57 299.323 181.702C301.867 178.788 308.132 178.61 310.432 182.049L311.428 183.55C311.582 183.789 311.735 184.028 311.889 184.268L312.421 185.05C313.07 186.014 313.655 187.307 314.35 188.284C316.53 191.345 317.723 189.703 317.665 193.418C315.507 193.976 313.336 192.011 312.406 190.292C312.537 190.23 313.111 189.949 313.247 189.872C313.155 189.39 312.5 189.195 312.588 188.651C312.777 188.588 312.967 188.525 313.157 188.462C313.183 188.447 313.21 188.432 313.236 188.416C313.234 188.367 311.916 186.776 311.736 186.011C310.655 181.416 303.187 180.921 300.586 184.242C297.015 188.801 297.322 189.13 298.097 194.719C292.763 196.882 294.014 196.869 293.59 202.234C292.748 201.225 292.357 171.914 292.555 168.377Z"/><path fill="#FEFEFE" fill-opacity="0.21176471" d="M353.99 208.207C354.346 207.191 354.506 206.076 354.802 205.246C354.965 205.34 355.129 205.433 355.293 205.527C360.041 204.854 357.475 206.297 360.984 203.009C364.61 199.611 374.719 196.761 379.007 200.504C378.993 202.4 378.963 204.264 378.973 206.163C377.497 201.039 377.466 202.577 370.7 202.533L369.288 203.544C368.071 204.419 367.248 205.485 366.225 206.223C364.051 207.759 361.422 208.326 359.781 210.585C359.394 211.119 358.221 211.97 357.495 211.86C354.87 211.459 355.24 211.542 353.803 214.008C353.931 212.039 353.787 209.975 353.99 208.207Z"/><defs><linearGradient id="gradient_0" gradientUnits="userSpaceOnUse" x1="241.4782" y1="213.3893" x2="245.67029" y2="219.83917"><stop offset="0" stop-color="white" stop-opacity="0.73725492"/><stop offset="1" stop-color="white" stop-opacity="0.84705883"/></linearGradient></defs><path fill="url(#gradient_0)" d="M236.496 216.045C236.64 215.937 238.346 214.514 238.129 214.596C241.938 213.159 250.84 214.446 254.754 214.912C250.244 215.97 249.379 215.471 250.316 218.959C250.764 219.008 251.315 218.964 251.654 219.299C251.652 219.266 247.091 225.199 245.57 222.122C245.139 221.25 241.008 222.395 240.483 222.938C236.468 224.027 238.733 224.977 237.901 226.239L237.781 226.243C237.289 225.468 236.847 222.854 236.542 221.706C236.402 220.068 236.499 217.764 236.496 216.045ZM238.114 220.269L238.282 219.507C238.73 217.678 238.5 217.53 237.037 216.356C236.92 217.8 236.123 220.606 238.114 220.269Z"/><path fill="#FEFEFE" fill-opacity="0.56862748" d="M237.037 216.356C238.5 217.53 238.73 217.678 238.282 219.507L238.114 220.269C236.123 220.606 236.92 217.8 237.037 216.356Z"/><path fill="#FEFEFE" fill-opacity="0.20392157" d="M705.544 180.022C708.442 180.478 712.863 180.325 715.749 179.814C722.443 178.629 725.568 180.732 731.741 182.427C731.749 182.429 732.716 184.501 732.97 184.903C733.015 186.047 733.036 187.193 733.035 188.338C732.844 187.819 731.912 185.242 731.64 184.94C731.011 184.988 730.457 185.152 729.855 185.367C729.563 185.462 729.271 185.558 728.979 185.654C725.99 186.466 724.19 183.246 721.291 183.198C719.62 183.17 718.331 183.262 716.73 183.469C716.675 183.476 716.051 183.303 715.992 183.481C715.658 183.555 715.324 183.628 714.99 183.702C713.585 183.765 712.722 184.373 711.277 184.412C710.528 184.433 709.219 185.105 708.268 184.663C706.983 184.066 707.762 182.804 706.093 182.707C705.76 181.451 705.658 181.224 705.544 180.022Z"/><path fill="#FEFEFE" fill-opacity="0.086274512" d="M293.014 172.85C296.134 168.191 311.043 173.508 316.005 173.492C317.484 173.487 318.543 173.777 318.797 175.191C318.334 175.381 317.738 175.667 317.877 176.248C318.235 177.737 314.363 174.811 313.399 174.258C306.956 174.204 300.35 174.685 293.89 174.723C293.792 175.772 293.826 176.815 293.73 177.808L293.394 177.962L293.454 178.506L293.513 178.55C293.465 178.582 293.417 178.614 293.368 178.645L293.294 178.59L293.353 178.503C293.037 177.76 293.042 173.961 293.014 172.85Z"/><path fill="#FEFEFE" fill-opacity="0.10196079" d="M705.544 180.022C706.103 176.418 710.255 178.583 713.503 177.78C719.204 176.37 729.045 177.474 733.077 182.631C733.05 183.388 733.014 184.146 732.97 184.903C732.716 184.501 731.749 182.429 731.741 182.427C725.568 180.732 722.443 178.629 715.749 179.814C712.863 180.325 708.442 180.478 705.544 180.022Z"/><path fill="#FEFEFE" fill-opacity="0.71372551" d="M704.062 179.879C704.511 182.817 704.549 185.231 704.498 188.204C704.091 189.938 704.304 206.959 705.216 207.521C705.232 208.672 705.171 209.773 705.495 210.862C705.667 211.44 705.539 211.901 705.413 212.45C705.3 212.938 705.419 213.338 705.619 213.751C705.981 214.501 706.005 215.496 705.989 216.302C705.986 216.508 706.019 217.085 706.145 217.285C706.201 217.372 706.349 217.45 706.464 217.448C706.888 217.443 707.339 217.111 707.734 216.958C708.04 216.84 708.36 216.656 708.71 216.788C708.793 216.819 708.861 216.952 708.868 217.025C708.891 217.196 708.914 217.367 708.937 217.538C708.295 218.024 704.532 218.575 704.253 218.326C703.603 215.157 703.699 184.265 704.062 179.879Z"/><path fill="#FEFEFE" fill-opacity="0.67450982" d="M319.948 173.4C320.163 176.578 319.978 215.495 319.733 215.863C319.444 215.632 319.155 215.4 318.863 215.173C318.728 212.396 319.149 209.682 319.365 206.849C318.244 205.029 318.362 207.801 318.216 203.107C318.334 202.159 318.41 201.451 318.487 200.501L318.736 200.149L318.604 200.025L318.662 200.013C318.973 200.341 318.994 201.106 319.247 201.523C319.747 200.671 319.577 195.144 319.459 193.972C319.334 190.799 319.889 183.39 319.475 181.21C319.455 178.216 319.42 176.382 319.948 173.4Z"/></svg>