<?xml version="1.0" encoding="utf-8" ?><svg xmlns="http://www.w3.org/2000/svg" xmlns:xlink="http://www.w3.org/1999/xlink" width="1024" height="1024" viewBox="0 0 1024 1024"><path fill="#FF4D88" d="M517.626 307.819C520.611 304.298 523.026 298.375 525.432 294.181C528.361 289.076 531.183 284.819 534.638 280.047C558.116 247.583 590.574 222.693 628.017 208.438C678.253 188.496 734.345 189.277 784.007 210.61C837.073 233.995 874.994 277.754 895.638 331.384C914.182 379.56 915.913 443.334 894.838 490.899C890.012 504.302 882.702 517.953 875.454 530.213C843.734 583.86 796.969 620.23 747.31 655.982L670.566 710.134C637.889 733.396 606.504 757.138 579.964 787.527C556.085 814.87 534.387 846.605 522.628 881.195C519.717 870.129 517.006 860.629 511.289 850.513C475.039 786.381 412.441 737.836 351.636 698.722C301.761 666.638 253.571 639.14 211.979 596.72C197.231 582.268 183.766 565.221 172.412 547.987C103.893 443.989 122.431 297.426 230.213 227.281C273.295 199.221 325.72 189.322 376.067 199.742C424.028 210.14 466.728 237.254 496.538 276.237C505.299 287.475 510.081 296.146 517.626 307.819Z"/><path fill="#F85DA1" d="M255.988 575.998C260.662 574.012 264.571 568.666 267.796 564.879C277.498 553.488 283.713 539.152 288.443 525.063C289.774 520.182 292.177 514.412 292.988 509.485C302.259 453.191 324.142 409.686 383.561 391.843C401.026 386.593 419.384 384.986 437.496 387.124C487.755 392.769 549.522 428.079 591.181 456.204C641.157 489.944 695.683 535.999 757.29 543.281C799.985 548.327 840.052 535.076 873.195 508.16C877.067 505.015 891.468 491.168 894.838 490.899C890.012 504.302 882.702 517.953 875.454 530.213C843.734 583.86 796.969 620.23 747.31 655.982L670.566 710.134C637.889 733.396 606.504 757.138 579.964 787.527C556.085 814.87 534.387 846.605 522.628 881.195C519.717 870.129 517.006 860.629 511.289 850.513C475.039 786.381 412.441 737.836 351.636 698.722C301.761 666.638 253.571 639.14 211.979 596.72C213.501 595.879 220.729 594.399 222.953 593.842C231.597 591.674 247.308 584.531 253.512 578.363C257.776 582.475 268.33 592.074 271.786 596.016L273.035 595.606C268.115 591.484 260.062 581.22 255.988 575.998Z"/><path fill="#FF85B3" d="M273.035 595.606C273.988 596.36 279.053 600.754 279.247 601.868C279.214 601.928 279.181 601.989 279.148 602.05C278.286 602.018 272.626 596.874 271.786 596.016L273.035 595.606Z"/><defs><linearGradient id="gradient_0" gradientUnits="userSpaceOnUse" x1="430.06503" y1="496.02603" x2="194.33749" y2="314.71237"><stop offset="0" stop-color="#FFE9FC"/><stop offset="1" stop-color="#FCFAFD"/></linearGradient></defs><path fill="url(#gradient_0)" d="M294.207 242.129C380.097 225.324 449.196 280.321 503.058 340.462C511.515 349.904 519.101 360.458 527.434 370.135L526.837 371.057C521.489 365.483 515.237 360.002 509.282 355.074C462.415 316.297 410.219 281.124 346.29 290.226C336.662 289.601 311.963 300.293 302.608 305.183C298.383 306.671 288.52 312.937 285.124 316.004C277.895 322.533 267.028 327.626 260.866 334.9C251.425 344.514 234.473 363.861 229.716 376.643C208.972 416.233 207.108 466.96 220.461 509.147C228.681 535.12 240.093 554.197 255.988 575.998C260.062 581.22 268.115 591.484 273.035 595.606L271.786 596.016C268.33 592.074 257.776 582.475 253.512 578.363C245.979 571.022 239.676 563.033 232.973 554.996C199.296 514.612 173.622 461.701 172.452 408.241C172.798 399.766 172.218 391.486 173.066 382.869C178.591 326.722 213.744 272.581 266.773 250.773C275.785 247.067 284.898 244.578 294.207 242.129Z"/><path fill="#FF85B3" d="M172.452 408.241L171.799 405.666L171.389 405.506C168.636 418.07 170.415 445.167 170.58 458.715C170.938 465.48 171.641 472.282 171.46 479.064C171.399 481.332 171.281 483.852 168.581 484.007C167.137 483.234 166.164 482.357 165.12 481.028C146.676 457.559 140.964 421.942 143.057 392.751C143.823 382.073 146.14 371.694 148.573 361.757C158.997 319.172 183.343 280.874 216.988 252.8C235.926 236.659 256.792 223.022 280.984 216.249C286.908 214.332 307.291 210.22 311.428 216.182C316.071 222.872 294.941 235.633 294.207 242.129C284.898 244.578 275.785 247.067 266.773 250.773C213.744 272.581 178.591 326.722 173.066 382.869C172.218 391.486 172.798 399.766 172.452 408.241Z"/><defs><linearGradient id="gradient_1" gradientUnits="userSpaceOnUse" x1="306.79575" y1="359.28757" x2="279.01343" y2="319.53314"><stop offset="0" stop-color="#F875A6"/><stop offset="1" stop-color="#FBC3DC"/></linearGradient></defs><path fill="url(#gradient_1)" d="M302.608 305.183C311.963 300.293 336.662 289.601 346.29 290.226C344.17 291.489 336.604 292.491 336.505 293.727C335.716 303.624 335.176 314.877 332.511 324.507C328.236 340.208 317.909 353.572 303.794 361.668C289.215 369.922 270.116 372.035 253.988 367.557C247.946 365.879 245.215 364.963 238.854 363.922C235.892 365.57 233.65 372.993 229.716 376.643C234.473 363.861 251.425 344.514 260.866 334.9C267.028 327.626 277.895 322.533 285.124 316.004C288.52 312.937 298.383 306.671 302.608 305.183Z"/><path fill="#FF85B3" d="M527.434 370.135C528.62 371.36 529.572 372.708 530.737 373.943L529.93 374.675C529.06 373.325 527.907 372.247 526.837 371.057L527.434 370.135Z"/><path fill="#F85DA1" d="M530.737 373.943C532.305 374.895 532.547 377.577 529.93 374.675L530.737 373.943Z"/></svg>